<svg width="84" height="23" viewBox="0 0 84 23" fill="none" xmlns="http://www.w3.org/2000/svg">
<path d="M27.0724 4.44385C26.9017 4.44385 26.7568 4.56791 26.7301 4.73685L24.7549 17.282C24.7477 17.3279 24.7505 17.3747 24.7631 17.4193C24.7757 17.464 24.7979 17.5053 24.828 17.5406C24.8581 17.5758 24.8954 17.6041 24.9375 17.6235C24.9796 17.6429 25.0253 17.653 25.0717 17.653H27.4142C27.5846 17.653 27.7297 17.5287 27.7564 17.36L28.3367 13.676C28.3631 13.5073 28.5083 13.383 28.6789 13.383H30.8087C33.2971 13.383 35.4095 11.5647 35.7953 9.10075C36.1844 6.61599 34.2461 4.44924 31.4989 4.44385H27.0724ZM29.3495 7.24441H31.0535C32.4564 7.24441 32.9132 8.0734 32.7688 8.99017C32.6243 9.9089 31.9148 10.5856 30.5577 10.5856H28.8234L29.3495 7.24441ZM40.5596 8.09719C39.9681 8.09939 39.2875 8.22076 38.5234 8.53951C36.7707 9.27116 35.929 10.7832 35.5716 11.8856C35.5716 11.8856 34.4338 15.2489 37.0043 17.0967C37.0043 17.0967 39.3882 18.8755 42.0717 16.9871L42.0254 17.282C42.0183 17.3278 42.0211 17.3746 42.0337 17.4192C42.0462 17.4638 42.0683 17.5051 42.0984 17.5404C42.1284 17.5756 42.1657 17.6039 42.2077 17.6234C42.2498 17.6428 42.2955 17.6529 42.3417 17.653H44.5655C44.7361 17.653 44.8811 17.5287 44.9078 17.36L46.2604 8.76901C46.2677 8.72319 46.2649 8.67634 46.2524 8.63168C46.2398 8.58702 46.2178 8.54562 46.1877 8.51032C46.1576 8.47502 46.1203 8.44666 46.0783 8.42719C46.0362 8.40773 45.9905 8.39761 45.9441 8.39755H43.7204C43.5497 8.39755 43.4045 8.52186 43.3781 8.69055L43.3054 9.15298C43.3054 9.15298 42.3344 8.09057 40.5596 8.09719ZM40.6324 10.8107C40.8877 10.8107 41.1213 10.846 41.3309 10.9134C42.2903 11.2219 42.8343 12.145 42.6769 13.1457C42.4828 14.3777 41.4738 15.2849 40.1799 15.2849C39.9248 15.2849 39.6912 15.2499 39.4814 15.1825C38.5222 14.874 37.9748 13.9509 38.1322 12.9502C38.3263 11.7182 39.3384 10.8107 40.6324 10.8107Z" fill="#ACACAC"/>
<path d="M59.0912 4.44385C58.9205 4.44385 58.7756 4.56791 58.7489 4.73685L56.7736 17.282C56.7665 17.3279 56.7693 17.3747 56.7819 17.4193C56.7945 17.464 56.8167 17.5053 56.8468 17.5406C56.8769 17.5758 56.9142 17.6041 56.9563 17.6235C56.9984 17.6429 57.0441 17.653 57.0905 17.653H59.433C59.6034 17.653 59.7485 17.5287 59.7752 17.36L60.3555 13.676C60.3819 13.5073 60.5271 13.383 60.6977 13.383H62.8275C65.3159 13.383 67.428 11.5647 67.8136 9.10075C68.2029 6.61599 66.2649 4.44924 63.5177 4.44385H59.0912ZM61.3683 7.24441H63.0723C64.4752 7.24441 64.932 8.0734 64.7876 8.99017C64.6431 9.9089 63.9339 10.5856 62.5765 10.5856H60.8422L61.3683 7.24441ZM72.5782 8.09719C71.9867 8.09939 71.3061 8.22076 70.542 8.53951C68.7893 9.27116 67.9475 10.7832 67.5901 11.8856C67.5901 11.8856 66.4529 15.2489 69.0233 17.0967C69.0233 17.0967 71.4067 18.8755 74.0905 16.9871L74.0442 17.282C74.037 17.3279 74.0399 17.3747 74.0525 17.4193C74.0651 17.464 74.0872 17.5053 74.1173 17.5406C74.1474 17.5758 74.1848 17.6041 74.2269 17.6235C74.269 17.6429 74.3147 17.653 74.361 17.653H76.5846C76.7552 17.653 76.9001 17.5287 76.9268 17.36L78.28 8.76901C78.2872 8.72315 78.2845 8.67625 78.2719 8.63156C78.2593 8.58687 78.2372 8.54545 78.2071 8.51014C78.177 8.47483 78.1396 8.44648 78.0975 8.42704C78.0554 8.4076 78.0095 8.39754 77.9632 8.39755H75.7394C75.5688 8.39755 75.4236 8.52186 75.3971 8.69055L75.3244 9.15298C75.3244 9.15298 74.353 8.09057 72.5782 8.09719ZM72.6509 10.8107C72.9063 10.8107 73.1398 10.846 73.3494 10.9134C74.3089 11.2219 74.8529 12.145 74.6955 13.1457C74.5013 14.3777 73.4924 15.2849 72.1985 15.2849C71.9434 15.2849 71.7098 15.2499 71.5 15.1825C70.5408 14.874 69.9933 13.9509 70.1508 12.9502C70.3449 11.7182 71.357 10.8107 72.6509 10.8107Z" fill="white"/>
<path d="M47.3141 8.39771C47.1378 8.39771 47.0125 8.57008 47.0663 8.73803L49.5043 16.3147L47.2999 19.8851C47.1929 20.0585 47.3173 20.2823 47.5207 20.2823H50.1262C50.2007 20.2823 50.2739 20.263 50.3388 20.2263C50.4037 20.1896 50.458 20.1368 50.4966 20.0729L57.3055 8.79246C57.41 8.61911 57.2852 8.39746 57.0829 8.39746H54.4777C54.4025 8.39753 54.3286 8.4172 54.2632 8.45456C54.1979 8.49192 54.1434 8.54568 54.1051 8.61053L51.425 13.1421L50.0645 8.64412C50.0202 8.49774 49.8853 8.39746 49.7327 8.39746L47.3141 8.39771Z" fill="#ACACAC"/>
<path d="M80.8056 4.44385C80.6352 4.44385 80.49 4.56816 80.4633 4.73685L78.4876 17.2815C78.4803 17.3274 78.4831 17.3743 78.4957 17.419C78.5083 17.4637 78.5304 17.5051 78.5605 17.5404C78.5906 17.5757 78.628 17.6041 78.6701 17.6235C78.7122 17.6429 78.758 17.653 78.8044 17.653H81.1469C81.3173 17.653 81.4625 17.5287 81.4892 17.36L83.4644 4.81482C83.4716 4.76904 83.4688 4.72224 83.4562 4.67764C83.4436 4.63305 83.4215 4.59171 83.3915 4.55646C83.3614 4.52122 83.3241 4.49291 83.2821 4.47347C83.2401 4.45403 83.1944 4.44392 83.1481 4.44385H80.8056Z" fill="white"/>
<path d="M7.54226 4.44385C7.39136 4.44397 7.24546 4.49799 7.13076 4.59618C7.01606 4.69438 6.94007 4.83032 6.91648 4.97959L5.87671 11.584C5.92518 11.2756 6.19057 11.0483 6.50248 11.0483H9.54935C12.6158 11.0483 15.2178 8.80799 15.6933 5.77205C15.7287 5.54539 15.7487 5.31659 15.7533 5.08723C14.974 4.678 14.0586 4.44385 13.0555 4.44385H7.54226Z" fill="#A0A0A0"/>
<path d="M15.7504 5.0874C15.7458 5.31677 15.7257 5.54556 15.6904 5.77222C15.2149 8.80817 12.6126 11.0485 9.54643 11.0485H6.49956C6.18789 11.0485 5.92226 11.2755 5.87379 11.5842L4.91773 17.6532L4.31889 21.4605C4.3072 21.5341 4.31158 21.6093 4.33174 21.681C4.3519 21.7527 4.38736 21.8191 4.43565 21.8758C4.48395 21.9324 4.54394 21.9779 4.61149 22.0091C4.67904 22.0402 4.75254 22.0563 4.82691 22.0563H8.13403C8.28493 22.0562 8.43083 22.0022 8.54553 21.904C8.66023 21.8058 8.7362 21.6698 8.7598 21.5206L9.63089 15.9873C9.6545 15.838 9.73055 15.702 9.84535 15.6038C9.96015 15.5056 10.1062 15.4516 10.2572 15.4516H12.2043C15.2707 15.4516 17.8727 13.2113 18.3482 10.1754C18.6858 8.02062 17.6022 6.05983 15.7504 5.0874Z" fill="white"/>
<path d="M3.78373 0.0415039C3.47206 0.0415039 3.20643 0.268551 3.15796 0.576755L0.562784 17.0575C0.513573 17.3703 0.754979 17.6533 1.0713 17.6533H4.91973L5.87529 11.5843L6.91506 4.97989C6.93866 4.83062 7.01464 4.69468 7.12934 4.59648C7.24404 4.49828 7.38995 4.44427 7.54084 4.44415H13.0541C14.0574 4.44415 14.9726 4.67855 15.7519 5.08753C15.8052 2.32349 13.5278 0.0415039 10.3967 0.0415039H3.78373Z" fill="#ACACAC"/>
</svg>
