<svg width="56" height="18" viewBox="0 0 56 18" fill="none" xmlns="http://www.w3.org/2000/svg">
<path d="M24.2582 17.7048H19.8025L22.5894 0.446777H27.0449L24.2582 17.7048Z" fill="white"/>
<path d="M40.4039 0.86853C39.525 0.519339 38.131 0.133789 36.4074 0.133789C32.0072 0.133789 28.9086 2.48369 28.8896 5.84334C28.8531 8.32208 31.1081 9.69883 32.7947 10.5253C34.5186 11.3699 35.1046 11.9211 35.1046 12.6739C35.087 13.8301 33.7116 14.363 32.4287 14.363C30.6498 14.363 29.6966 14.0882 28.2481 13.445L27.6614 13.1693L27.0378 17.0433C28.0829 17.5201 30.0083 17.9433 32.0072 17.9618C36.6825 17.9618 39.7263 15.6483 39.7623 12.068C39.7801 10.1034 38.5894 8.59807 36.0222 7.36797C34.4638 6.57832 33.5094 6.04588 33.5094 5.23793C33.5276 4.50343 34.3166 3.75112 36.0758 3.75112C37.5243 3.71428 38.5886 4.06298 39.3949 4.41193L39.7979 4.59518L40.4039 0.86853Z" fill="white"/>
<path d="M46.3274 11.5909C46.6943 10.5994 48.1063 6.76223 48.1063 6.76223C48.0878 6.79907 48.4725 5.75248 48.6926 5.10998L49.0039 6.59703C49.0039 6.59703 49.8477 10.728 50.031 11.5909C49.3346 11.5909 47.2075 11.5909 46.3274 11.5909ZM51.8274 0.446777H48.3809C47.3181 0.446777 46.5106 0.758633 46.052 1.87868L39.4336 17.7045H44.1089C44.1089 17.7045 44.8786 15.5745 45.044 15.1157C45.5569 15.1157 50.105 15.1157 50.7648 15.1157C50.8928 15.7216 51.2965 17.7045 51.2965 17.7045H55.4221L51.8274 0.446777Z" fill="white"/>
<path d="M16.0753 0.446777L11.7117 12.2151L11.2348 9.82832C10.4281 7.07433 7.89796 4.08217 5.07446 2.59439L9.07141 17.6865H13.7832L20.7869 0.446777H16.0753Z" fill="white"/>
<path d="M7.65945 0.446777H0.490577L0.417236 0.79548C6.0094 2.22763 9.71299 5.67976 11.2346 9.82905L9.67619 1.89747C9.41962 0.795236 8.63115 0.483136 7.65945 0.446777Z" fill="#FAA61A"/>
</svg>
