<svg width="29" height="23" viewBox="0 0 29 23" fill="none" xmlns="http://www.w3.org/2000/svg">
<path d="M5.52547 22.0481V20.5816C5.52547 20.0206 5.18428 19.6533 4.59856 19.6533C4.3057 19.6533 3.98725 19.7501 3.76832 20.0691C3.59772 19.8014 3.3532 19.6533 2.98642 19.6533C2.74189 19.6533 2.49737 19.7274 2.30403 19.995V19.7017H1.79224V22.0481H2.30403V20.7525C2.30403 20.3367 2.52296 20.1402 2.86416 20.1402C3.20535 20.1402 3.37595 20.3595 3.37595 20.7525V22.0481H3.88774V20.7525C3.88774 20.3367 4.13226 20.1402 4.44787 20.1402C4.78906 20.1402 4.95966 20.3595 4.95966 20.7525V22.0481H5.52547ZM13.117 19.7017H12.2868V18.9927H11.775V19.7017H11.3116V20.1659H11.775V21.2422C11.775 21.7804 11.9939 22.0965 12.5797 22.0965C12.7986 22.0965 13.0431 22.0224 13.2137 21.9256L13.0659 21.4843C12.918 21.5811 12.7474 21.6067 12.6252 21.6067C12.3806 21.6067 12.284 21.4586 12.284 21.2166V20.1659H13.1142V19.7017H13.117ZM17.4616 19.6505C17.1687 19.6505 16.9725 19.7985 16.8503 19.9922V19.6989H16.3385V22.0452H16.8503V20.724C16.8503 20.3339 17.0209 20.1118 17.3393 20.1118C17.436 20.1118 17.5583 20.1374 17.6578 20.1602L17.8056 19.6704C17.7033 19.6505 17.5583 19.6505 17.4616 19.6505ZM10.8964 19.8954C10.6519 19.7245 10.3107 19.6505 9.94394 19.6505C9.35822 19.6505 8.96869 19.9438 8.96869 20.4079C8.96869 20.798 9.26155 21.0201 9.77334 21.0913L10.0179 21.1169C10.2851 21.1653 10.433 21.2394 10.433 21.3618C10.433 21.5327 10.2368 21.6551 9.8956 21.6551C9.55441 21.6551 9.2843 21.5327 9.1137 21.4102L8.86918 21.8003C9.13645 21.9968 9.50323 22.0936 9.87001 22.0936C10.5524 22.0936 10.9448 21.7747 10.9448 21.3362C10.9448 20.9205 10.6263 20.7012 10.1401 20.6272L9.8956 20.6015C9.67667 20.5759 9.50607 20.5275 9.50607 20.3823C9.50607 20.2114 9.67667 20.1146 9.94678 20.1146C10.2396 20.1146 10.5325 20.2371 10.6803 20.3111L10.8964 19.8954ZM24.5129 19.6505C24.2201 19.6505 24.0239 19.7985 23.9016 19.9922V19.6989H23.3898V22.0452H23.9016V20.724C23.9016 20.3339 24.0722 20.1118 24.3907 20.1118C24.4873 20.1118 24.6096 20.1374 24.7091 20.1602L24.857 19.6761C24.7575 19.6505 24.6125 19.6505 24.5129 19.6505ZM17.9734 20.8749C17.9734 21.5839 18.4624 22.0965 19.2187 22.0965C19.5599 22.0965 19.8045 22.0224 20.049 21.8288L19.8045 21.4131C19.6083 21.5611 19.4149 21.6323 19.1931 21.6323C18.778 21.6323 18.4852 21.339 18.4852 20.8749C18.4852 20.4335 18.778 20.1402 19.1931 20.1175C19.4121 20.1175 19.6083 20.1915 19.8045 20.3367L20.049 19.921C19.8045 19.7245 19.5599 19.6533 19.2187 19.6533C18.4624 19.6505 17.9734 20.1659 17.9734 20.8749ZM22.7075 20.8749V19.7017H22.1957V19.995C22.0251 19.7758 21.7805 19.6533 21.4621 19.6533C20.8024 19.6533 20.2907 20.1659 20.2907 20.8749C20.2907 21.5839 20.8024 22.0965 21.4621 22.0965C21.8033 22.0965 22.0478 21.974 22.1957 21.7548V22.0481H22.7075V20.8749ZM20.828 20.8749C20.828 20.4592 21.0953 20.1175 21.536 20.1175C21.9511 20.1175 22.244 20.4364 22.244 20.8749C22.244 21.2906 21.9511 21.6323 21.536 21.6323C21.0982 21.6067 20.828 21.2878 20.828 20.8749ZM14.7036 19.6505C14.0212 19.6505 13.5322 20.1402 13.5322 20.8721C13.5322 21.6067 14.0212 22.0936 14.7292 22.0936C15.0704 22.0936 15.4116 21.9968 15.6817 21.7747L15.4372 21.4074C15.241 21.5555 14.9965 21.6523 14.7548 21.6523C14.4363 21.6523 14.1207 21.5042 14.0468 21.0913H15.7784C15.7784 21.0173 15.7784 20.9689 15.7784 20.8948C15.8011 20.1402 15.3604 19.6505 14.7036 19.6505ZM14.7036 20.0918C15.022 20.0918 15.241 20.2883 15.2893 20.6528H14.0695C14.1179 20.3367 14.3368 20.0918 14.7036 20.0918ZM27.4188 20.8749V18.7734H26.907V19.995C26.7364 19.7758 26.4919 19.6533 26.1734 19.6533C25.5138 19.6533 25.002 20.1659 25.002 20.8749C25.002 21.5839 25.5138 22.0965 26.1734 22.0965C26.5146 22.0965 26.7591 21.974 26.907 21.7548V22.0481H27.4188V20.8749ZM25.5394 20.8749C25.5394 20.4592 25.8066 20.1175 26.2473 20.1175C26.6625 20.1175 26.9553 20.4364 26.9553 20.8749C26.9553 21.2906 26.6625 21.6323 26.2473 21.6323C25.8066 21.6067 25.5394 21.2878 25.5394 20.8749ZM8.40572 20.8749V19.7017H7.89393V19.995C7.72333 19.7758 7.47881 19.6533 7.16036 19.6533C6.50072 19.6533 5.98893 20.1659 5.98893 20.8749C5.98893 21.5839 6.50072 22.0965 7.16036 22.0965C7.50156 22.0965 7.74608 21.974 7.89393 21.7548V22.0481H8.40572V20.8749ZM6.50356 20.8749C6.50356 20.4592 6.77083 20.1175 7.21154 20.1175C7.62666 20.1175 7.91952 20.4364 7.91952 20.8749C7.91952 21.2906 7.62666 21.6323 7.21154 21.6323C6.77083 21.6067 6.50356 21.2878 6.50356 20.8749Z" fill="white"/>
<path d="M18.4043 1.88232H10.7161V15.7155H18.4043V1.88232Z" fill="#FF5A00"/>
<path d="M11.2295 8.79881C11.2295 5.98831 12.5488 3.4939 14.5732 1.8822C13.0833 0.70903 11.2039 0 9.15392 0C4.29759 0 0.368164 3.93526 0.368164 8.79881C0.368164 13.6624 4.29759 17.5976 9.15392 17.5976C11.2039 17.5976 13.0833 16.8886 14.5732 15.7154C12.546 14.1265 11.2295 11.6093 11.2295 8.79881Z" fill="#EB001B"/>
<path d="M28.7788 8.79881C28.7788 13.6624 24.8494 17.5976 19.993 17.5976C17.943 17.5976 16.0636 16.8886 14.5737 15.7154C16.6237 14.1009 17.9174 11.6093 17.9174 8.79881C17.9174 5.98831 16.5982 3.4939 14.5737 1.8822C16.0608 0.70903 17.9402 0 19.9902 0C24.8494 0 28.7788 3.96089 28.7788 8.79881Z" fill="#F79E1B"/>
</svg>
