<svg width="35" height="23" viewBox="0 0 35 23" fill="none" xmlns="http://www.w3.org/2000/svg">
<rect x="2.33032" y="3.57715" width="30.9285" height="14.1942" fill="#016FD0"/>
<path d="M15.3124 9.8823H12.7358V6.64954H15.3124V7.32296H13.5068V7.90542H15.2696V8.56799H13.5068V9.2137H15.3124V9.8823ZM9.57035 9.8823L8.44986 7.34886V9.8829H6.88008L6.58357 9.1619H4.97771L4.67819 9.8829H3.84038L5.2219 6.65015H6.36705L7.68001 9.71124V6.65015H8.93943L9.94926 8.84326L10.8761 6.65015H12.162V9.8829H11.3711L11.3681 7.35127L10.2494 9.8829L9.57035 9.8823ZM6.3045 8.48788L5.77703 7.19948L5.25257 8.48788H6.3045ZM18.7839 13.2789C18.7839 14.177 18.1151 14.3625 17.4409 14.3625H16.4786V15.4467H14.9791L14.0289 14.3764L13.0413 15.4467H9.98535V12.214H13.0876L14.0379 13.2729L15.0194 12.214H17.4842C18.0964 12.2134 18.7839 12.3838 18.7839 13.2789ZM13.5327 13.824L12.6888 12.8826H10.7552V13.4704H12.4483V14.1306H10.7552V14.7739H12.651L13.5327 13.824ZM15.7099 12.5603L14.5251 13.8348L15.7099 15.1528V12.5603ZM17.9557 13.2789C17.9557 12.9958 17.7632 12.8819 17.4842 12.8819H16.4786V13.7053H17.4745C17.7717 13.7059 17.9557 13.5584 17.9557 13.2789ZM16.6199 9.8823H15.8476V6.64954H17.6219C18.0158 6.64954 18.3063 6.65978 18.5565 6.80435C18.7995 6.94891 18.9463 7.15973 18.9463 7.52053C18.9463 8.03553 18.6035 8.30236 18.4026 8.38187C18.5716 8.44632 18.7159 8.56016 18.7845 8.65413C18.894 8.81495 18.9126 8.95831 18.9126 9.24683V9.8823H18.1343L18.1307 9.47452C18.1307 9.27996 18.1494 9.00047 18.0092 8.84507C17.8968 8.73183 17.7247 8.70714 17.4469 8.70714H16.6199V9.8823ZM16.6187 8.04095H17.5563C17.7061 8.04095 17.8312 8.03914 17.9383 7.97469C18.0375 7.92229 18.097 7.80844 18.097 7.6675C18.097 7.52896 18.0351 7.42897 17.9353 7.38199C17.8438 7.33019 17.7031 7.32356 17.5696 7.32356H16.6193L16.6187 8.04095ZM20.1805 6.65015H19.3932V9.8829H20.1805V6.65015ZM20.972 9.52511C20.7001 9.25044 20.5582 8.8782 20.5582 8.29092C20.5582 7.81146 20.643 7.37295 20.9738 7.02661C21.2222 6.76881 21.6137 6.65015 22.1454 6.65015H22.8918V7.34284H22.161C21.8777 7.34284 21.7196 7.385 21.5668 7.53438C21.4351 7.67051 21.3454 7.9271 21.3454 8.26682C21.3454 8.61257 21.4128 8.86254 21.5578 9.02517C21.6762 9.15347 21.894 9.19202 22.0955 9.19202H22.4413L23.5311 6.65015H24.6865L25.9928 9.70762V6.65015H27.1674L28.5243 8.90169V6.65015H29.3134V9.8829H28.2212L26.7573 7.45668V9.8829H25.1869L24.8862 9.1619H23.2839L22.994 9.8829H22.0906C21.7147 9.8823 21.2402 9.79918 20.972 9.52511ZM23.56 8.48788H24.6245L24.0898 7.19948L23.56 8.48788ZM21.9403 7.91626C21.9331 7.9265 21.8789 8.04275 21.8789 8.26682C21.8789 8.48849 21.9144 8.5951 21.9403 8.64329C21.9673 8.65051 22.0173 8.65895 22.0918 8.65895L22.4262 7.87651H22.1628C21.9812 7.87591 21.9625 7.89518 21.9403 7.91626ZM34.6969 0.900215V21.196C34.6969 21.6797 34.306 22.0718 33.8224 22.0718H1.6018C1.11823 22.0718 0.727295 21.6791 0.727295 21.1954V0.900215C0.727295 0.416537 1.11823 0.0244141 1.6018 0.0244141H33.8224C34.306 0.0244141 34.6969 0.416537 34.6969 0.900215ZM9.57035 10.4166H10.2482C10.4599 10.4166 10.6499 10.2919 10.7353 10.0985L10.8376 9.86965V9.8829C10.8376 10.1774 11.0758 10.416 11.3705 10.416H12.1614C12.2696 10.416 12.3641 10.375 12.4489 10.3202C12.5331 10.375 12.6275 10.416 12.7364 10.416H15.313C15.4128 10.416 15.5012 10.381 15.58 10.3335C15.6606 10.381 15.7478 10.416 15.8476 10.416H16.6199C16.914 10.416 17.1528 10.1768 17.1528 9.8823V9.2402H17.4469C17.5136 9.2402 17.5612 9.24201 17.5966 9.24442C17.6003 9.29924 17.599 9.36429 17.599 9.40766L17.5978 9.47873L17.6009 9.88652C17.6033 10.1793 17.8414 10.416 18.1343 10.416H18.9126C19.0004 10.416 19.0792 10.3895 19.152 10.3515C19.226 10.3895 19.3059 10.416 19.3932 10.416H20.1811C20.4391 10.416 20.6436 10.2292 20.6935 9.9859C21.1319 10.3539 21.7466 10.416 22.09 10.416H22.9934C23.2093 10.416 23.4054 10.2835 23.4854 10.0817L23.643 9.69437H24.5319L24.6949 10.0871C24.7791 10.2859 24.9722 10.4154 25.1869 10.4154H26.7573C27.0508 10.4154 27.2901 10.1762 27.2901 9.8817V9.37152L27.7635 10.1576C27.8603 10.3178 28.0329 10.4154 28.2212 10.4154H29.3134C29.6069 10.4154 29.8463 10.1762 29.8463 9.8817V6.64894C29.8463 6.3544 29.6081 6.11527 29.3134 6.11527H28.5243C28.2296 6.11527 27.9902 6.3544 27.9902 6.64894V6.98264L27.6233 6.37367C27.5271 6.21345 27.3545 6.11587 27.1674 6.11587H25.9928C25.6981 6.11587 25.4593 6.355 25.4593 6.64954V7.10311L25.1761 6.43933C25.0913 6.24357 24.8994 6.11587 24.6865 6.11587H23.5311C23.4132 6.11587 23.302 6.15442 23.2123 6.22188C23.1239 6.15502 23.0127 6.11587 22.8942 6.11587H22.1478C21.5151 6.11587 21.0447 6.27007 20.6995 6.56943C20.6604 6.31464 20.4487 6.11587 20.1823 6.11587H19.395C19.1851 6.11587 19.007 6.24056 18.9204 6.41644C18.8873 6.39234 18.8609 6.36404 18.8242 6.34175C18.4615 6.13213 18.082 6.11587 17.6231 6.11587H15.8488C15.749 6.11587 15.6612 6.15081 15.5812 6.19839C15.5024 6.15081 15.414 6.11587 15.3142 6.11587H12.7376C12.6287 6.11587 12.5343 6.15623 12.4501 6.21164C12.3653 6.15623 12.2708 6.11587 12.1626 6.11587H10.8767C10.6638 6.11587 10.4701 6.24417 10.3871 6.44174L9.92881 7.52354L9.4242 6.42608C9.33639 6.23754 9.14693 6.11587 8.94003 6.11587H7.68001C7.3853 6.11587 7.14713 6.355 7.14713 6.64954V7.11395L6.85783 6.43812C6.77303 6.24236 6.58116 6.11527 6.36765 6.11527H5.2225C5.00899 6.11527 4.81592 6.24296 4.73232 6.43872L3.3514 9.67148C3.28043 9.83592 3.29787 10.0251 3.39591 10.1756C3.49455 10.325 3.66175 10.4154 3.84098 10.4154H4.67939C4.89351 10.4154 5.08838 10.2853 5.17017 10.0865L5.33317 9.69377H6.22691L6.3875 10.0841C6.4699 10.2841 6.66416 10.4148 6.88068 10.4148H8.44986C8.74396 10.4148 8.98274 10.1756 8.98274 9.88109V9.86844L9.08378 10.0979C9.16858 10.2919 9.35984 10.4166 9.57035 10.4166ZM32.1167 14.4263C32.1167 13.9746 31.9964 13.6385 31.7318 13.3662C31.7264 13.3608 31.7204 13.3554 31.7162 13.3506C31.8635 13.2554 31.9598 13.0898 31.9598 12.9012V12.2134C31.9598 11.9182 31.7216 11.6791 31.4275 11.6791H29.8806C29.3988 11.6791 29.0373 11.8206 28.7727 12.0357C28.6987 11.8291 28.5075 11.6791 28.2747 11.6791H26.729C26.3044 11.6791 25.9676 11.7851 25.7138 11.9574C25.6223 11.7941 25.4539 11.6791 25.2542 11.6791H22.6801C22.472 11.6791 22.2981 11.8008 22.2103 11.9736C22.173 11.9483 22.1472 11.9176 22.1069 11.8941C21.7346 11.6947 21.3376 11.6791 20.9274 11.6791H19.146C18.9373 11.6791 18.7616 11.8014 18.6744 11.976C18.4044 11.7989 18.0243 11.6791 17.4842 11.6791H15.0194C14.8709 11.6791 14.7296 11.7405 14.6285 11.8495L14.0445 12.4808L13.484 11.8562C13.3835 11.7429 13.2398 11.6791 13.0876 11.6791H9.98535C9.69124 11.6791 9.45247 11.9176 9.45247 12.2134V15.4461C9.45247 15.7407 9.69064 15.9804 9.98535 15.9804H13.0413C13.1898 15.9804 13.3312 15.9177 13.4322 15.8087L14.021 15.1702L14.5798 15.8003C14.6808 15.9141 14.8264 15.9792 14.9785 15.9792H16.478C16.7727 15.9792 17.0114 15.7407 17.0114 15.4455V14.8944H17.4403C17.9611 14.8944 18.3388 14.7871 18.6125 14.6239V15.4455C18.6125 15.74 18.8507 15.9792 19.146 15.9792H19.9212C20.2153 15.9792 20.4541 15.7407 20.4541 15.4455V14.798H20.7452C20.8162 14.798 20.8661 14.8004 20.9016 14.8028C20.9052 14.86 20.9052 14.9299 20.904 14.9757V15.4455C20.904 15.74 21.1422 15.9792 21.4375 15.9792H22.2115C22.2969 15.9792 22.3745 15.9545 22.4461 15.9189C22.5171 15.9557 22.5959 15.9792 22.6819 15.9792H25.2561C25.3403 15.9792 25.4166 15.9557 25.487 15.9214C25.558 15.9557 25.6338 15.9792 25.7186 15.9792H27.221C27.7003 15.9792 28.0877 15.8623 28.3806 15.6545C28.4624 15.8449 28.6506 15.9792 28.8707 15.9792H30.3732C31.4654 15.9804 32.1167 15.3991 32.1167 14.4263ZM27.3202 13.4819L26.9058 13.4698C26.7741 13.4698 26.6875 13.4614 26.6051 13.4331C26.5083 13.3963 26.4367 13.3144 26.4367 13.1922C26.4367 13.0898 26.468 13.0121 26.5534 12.959C26.6304 12.9066 26.7212 12.9006 26.8625 12.9006H28.2771V12.2128H26.7314C25.9219 12.2128 25.6283 12.7055 25.6283 13.1753C25.6283 14.1975 26.5323 14.1517 27.2529 14.1752C27.3882 14.1752 27.4688 14.1975 27.5277 14.2468C27.5818 14.2926 27.6215 14.3661 27.6215 14.4607C27.6215 14.5486 27.5842 14.6221 27.5313 14.6715C27.4664 14.7329 27.3623 14.7516 27.2168 14.7516H25.7204V15.4449H27.2228C28.0004 15.4449 28.4353 15.1202 28.4353 14.4245C28.4353 14.0927 28.3541 13.8951 28.2037 13.7397C28.0263 13.5638 27.7388 13.4921 27.3202 13.4819ZM21.7063 13.9439C21.8771 14.0065 22.0185 14.1216 22.0834 14.2155C22.1935 14.3733 22.2091 14.5203 22.2115 14.8052V15.4461H21.4375V15.0419C21.4375 14.8474 21.4561 14.5595 21.313 14.4089C21.1999 14.2932 21.0285 14.2655 20.747 14.2655H19.923V15.4461H19.1484V12.2134H20.9293C21.3196 12.2134 21.6035 12.2296 21.8585 12.3651C22.1009 12.5121 22.2542 12.7145 22.2542 13.0831C22.253 13.6005 21.9084 13.8638 21.7063 13.9439ZM21.3996 13.2319C21.3996 13.094 21.34 12.9934 21.2402 12.941C21.1464 12.8856 21.008 12.8826 20.8721 12.8826H19.9218V13.609H20.8595C21.0098 13.609 21.138 13.6036 21.2414 13.5421C21.34 13.4819 21.3996 13.3698 21.3996 13.2319ZM22.6813 15.4461H25.2555V14.7757L23.4487 14.7721V14.1294H25.2109V13.4698H23.4487V12.8813H25.2555V12.2134H22.6813V15.4461ZM30.4724 13.4819L30.0574 13.4698C29.9269 13.4698 29.8397 13.4614 29.7567 13.4331C29.661 13.3963 29.5889 13.3144 29.5889 13.1922C29.5889 13.0898 29.6201 13.0121 29.7049 12.959C29.7825 12.9066 29.874 12.9006 30.0147 12.9006H31.4299V12.2128H29.883C29.0746 12.2128 28.7799 12.7055 28.7799 13.1753C28.7799 14.1975 29.6845 14.1517 30.4056 14.1752C30.5404 14.1752 30.6203 14.1975 30.6805 14.2468C30.7334 14.2926 30.7737 14.3661 30.7737 14.4607C30.7737 14.5486 30.7358 14.6221 30.6841 14.6715C30.6185 14.7329 30.5145 14.7516 30.3689 14.7516H28.8731V15.4449H30.3756C31.1532 15.4449 31.5869 15.1202 31.5869 14.4245C31.5869 14.0927 31.5069 13.8951 31.3553 13.7397C31.1791 13.5638 30.891 13.4921 30.4724 13.4819Z" fill="white"/>
</svg>
