<svg width="82" height="17" viewBox="0 0 82 17" fill="none" xmlns="http://www.w3.org/2000/svg">
<path d="M79.8056 7.12203L78.2613 11.0608H78.2149L76.6037 7.12203H75.1469L77.5612 12.628L76.1816 15.6904H77.5972L81.3191 7.12203H79.8056ZM68.8923 3.85348H67.5436V12.9374H68.8923V3.85348ZM63.8166 3.85348H60.5735V12.9374H61.9325V9.49868H63.8217C64.2026 9.51174 64.5823 9.44889 64.9388 9.31378C65.2952 9.17867 65.6213 8.974 65.8981 8.71164C66.1749 8.44928 66.3969 8.13447 66.5513 7.78548C66.7056 7.43648 66.7892 7.06026 66.7971 6.67866C66.7892 6.29638 66.7055 5.91949 66.5509 5.56987C66.3963 5.22025 66.1739 4.90487 65.8966 4.64203C65.6193 4.37919 65.2927 4.17414 64.9356 4.03877C64.5785 3.9034 64.1981 3.84042 63.8166 3.85348ZM63.8526 8.23044H61.9325V5.13718H63.8578C64.2673 5.13718 64.6601 5.30013 64.9498 5.59018C65.2394 5.88023 65.4021 6.27362 65.4021 6.68381C65.4021 7.09401 65.2394 7.4874 64.9498 7.77745C64.6601 8.0675 64.2673 8.23044 63.8578 8.23044H63.8526ZM72.2178 6.92612C71.7237 6.89774 71.2322 7.01431 70.8034 7.26156C70.3745 7.50881 70.027 7.87599 69.8034 8.31809L71.008 8.83363C71.1274 8.61505 71.3079 8.43616 71.5274 8.31892C71.7469 8.20169 71.9958 8.15123 72.2435 8.17373C72.4136 8.15667 72.5854 8.17344 72.749 8.22309C72.9126 8.27274 73.0648 8.35429 73.1969 8.46304C73.3289 8.5718 73.4382 8.70561 73.5184 8.8568C73.5986 9.00799 73.6482 9.17357 73.6643 9.34402V9.43682C73.2327 9.20302 72.7496 9.08075 72.2589 9.08109C70.9669 9.08109 69.649 9.79254 69.649 11.1433C69.649 12.36 70.7043 13.1436 71.8986 13.1436C72.2385 13.1652 72.5778 13.0941 72.8806 12.938C73.1833 12.7819 73.4381 12.5465 73.618 12.2568H73.6694V12.958H74.9873V9.46259C74.9873 7.84894 73.7827 6.9519 72.2281 6.9519L72.2178 6.92612ZM72.0582 11.9063C71.6155 11.9063 70.9977 11.6794 70.9977 11.133C70.9977 10.4318 71.7648 10.1637 72.434 10.1637C72.8656 10.1522 73.2924 10.2572 73.6694 10.4679C73.6197 10.8622 73.4291 11.225 73.1329 11.4894C72.8367 11.7539 72.455 11.9019 72.0582 11.9063ZM23.2468 13.1333C21.9659 13.1375 20.7348 12.6361 19.8204 11.7377C18.906 10.8393 18.3819 9.61626 18.3616 8.33355C18.3819 7.05085 18.906 5.82781 19.8204 4.92941C20.7348 4.03101 21.9659 3.52961 23.2468 3.53384C23.8572 3.52366 24.4635 3.63561 25.0301 3.86312C25.5967 4.09064 26.1123 4.42914 26.5466 4.85879L25.6148 5.78161C24.9828 5.16144 24.1316 4.81674 23.2468 4.8227C22.3225 4.8227 21.4361 5.19042 20.7825 5.84497C20.1289 6.49951 19.7618 7.38726 19.7618 8.31293C19.7618 9.2386 20.1289 10.1264 20.7825 10.7809C21.4361 11.4354 22.3225 11.8032 23.2468 11.8032C23.6966 11.8217 24.1453 11.7454 24.5639 11.5793C24.9824 11.4133 25.3615 11.1611 25.6766 10.8391C26.0956 10.3867 26.348 9.80478 26.3921 9.18936H23.2468V7.91596H27.6739C27.7222 8.18645 27.7446 8.46093 27.7408 8.73568C27.7853 9.87691 27.3762 10.9893 26.6032 11.8289C26.1667 12.2705 25.6422 12.6148 25.0639 12.8396C24.4856 13.0643 23.8664 13.1644 23.2468 13.1333ZM34.5874 10.04C34.6043 10.4524 34.5378 10.8639 34.3919 11.2499C34.246 11.6359 34.0237 11.9884 33.7383 12.2861C33.4529 12.5839 33.1104 12.8208 32.7313 12.9827C32.3522 13.1445 31.9443 13.228 31.5322 13.228C31.1201 13.228 30.7122 13.1445 30.3331 12.9827C29.954 12.8208 29.6115 12.5839 29.3261 12.2861C29.0407 11.9884 28.8184 11.6359 28.6725 11.2499C28.5266 10.8639 28.4601 10.4524 28.477 10.04C28.4601 9.62762 28.5266 9.21608 28.6725 8.83009C28.8184 8.4441 29.0407 8.09163 29.3261 7.79387C29.6115 7.4961 29.954 7.25917 30.3331 7.09733C30.7122 6.93548 31.1201 6.85205 31.5322 6.85205C31.9443 6.85205 32.3522 6.93548 32.7313 7.09733C33.1104 7.25917 33.4529 7.4961 33.7383 7.79387C34.0237 8.09163 34.246 8.4441 34.3919 8.83009C34.5378 9.21608 34.6043 9.62762 34.5874 10.04ZM33.249 10.04C33.2717 9.80051 33.2442 9.55891 33.1682 9.33069C33.0923 9.10246 32.9696 8.89264 32.8079 8.71468C32.6463 8.53671 32.4493 8.39453 32.2297 8.29723C32.01 8.19994 31.7724 8.14968 31.5322 8.14968C31.292 8.14968 31.0544 8.19994 30.8347 8.29723C30.615 8.39453 30.4181 8.53671 30.2565 8.71468C30.0948 8.89264 29.9721 9.10246 29.8962 9.33069C29.8202 9.55891 29.7927 9.80051 29.8154 10.04C29.7927 10.2795 29.8202 10.5211 29.8962 10.7493C29.9721 10.9775 30.0948 11.1874 30.2565 11.3653C30.4181 11.5433 30.615 11.6855 30.8347 11.7828C31.0544 11.8801 31.292 11.9303 31.5322 11.9303C31.7724 11.9303 32.01 11.8801 32.2297 11.7828C32.4493 11.6855 32.6463 11.5433 32.8079 11.3653C32.9696 11.1874 33.0923 10.9775 33.1682 10.7493C33.2442 10.5211 33.2717 10.2795 33.249 10.04ZM41.434 10.04C41.434 10.8508 41.1124 11.6284 40.5399 12.2018C39.9674 12.7751 39.1909 13.0972 38.3813 13.0972C37.5717 13.0972 36.7953 12.7751 36.2228 12.2018C35.6503 11.6284 35.3287 10.8508 35.3287 10.04C35.3287 9.22919 35.6503 8.45159 36.2228 7.87825C36.7953 7.30492 37.5717 6.98283 38.3813 6.98283C39.1909 6.98283 39.9674 7.30492 40.5399 7.87825C41.1124 8.45159 41.434 9.22919 41.434 10.04ZM40.1007 10.04C40.1234 9.80051 40.0959 9.55891 40.0199 9.33069C39.944 9.10246 39.8213 8.89264 39.6597 8.71468C39.498 8.53671 39.3011 8.39453 39.0814 8.29723C38.8617 8.19994 38.6241 8.14968 38.3839 8.14968C38.1437 8.14968 37.9061 8.19994 37.6864 8.29723C37.4668 8.39453 37.2698 8.53671 37.1082 8.71468C36.9465 8.89264 36.8238 9.10246 36.7479 9.33069C36.6719 9.55891 36.6444 9.80051 36.6671 10.04C36.6444 10.2795 36.6719 10.5211 36.7479 10.7493C36.8238 10.9775 36.9465 11.1874 37.1082 11.3653C37.2698 11.5433 37.4668 11.6855 37.6864 11.7828C37.9061 11.8801 38.1437 11.9303 38.3839 11.9303C38.6241 11.9303 38.8617 11.8801 39.0814 11.7828C39.3011 11.6855 39.498 11.5433 39.6597 11.3653C39.8213 11.1874 39.944 10.9775 40.0199 10.7493C40.0959 10.5211 40.1234 10.2795 40.1007 10.04ZM48.1158 7.13749V12.6899C48.1158 14.9686 46.7619 15.9069 45.1661 15.9069C44.5812 15.9118 44.0079 15.7431 43.5186 15.4219C43.0294 15.1008 42.6461 14.6416 42.4172 14.1025L43.5858 13.5869C43.707 13.9017 43.9181 14.1737 44.1927 14.369C44.4674 14.5643 44.7934 14.6742 45.1301 14.6851C46.1596 14.6851 46.7877 14.0509 46.7877 12.8703V12.427H46.7362C46.5343 12.6526 46.2865 12.8324 46.0095 12.9542C45.7325 13.076 45.4326 13.1371 45.1301 13.1333C44.3109 13.1333 43.5253 12.8074 42.9461 12.2273C42.3668 11.6472 42.0414 10.8604 42.0414 10.04C42.0414 9.21962 42.3668 8.43284 42.9461 7.85274C43.5253 7.27264 44.3109 6.94674 45.1301 6.94674C45.4346 6.94003 45.7371 6.99814 46.0175 7.11723C46.2979 7.23632 46.5499 7.41367 46.7568 7.63757H46.8083V7.12203H48.1158V7.13749ZM46.9164 10.0555C46.9353 9.82215 46.9072 9.5874 46.8338 9.36516C46.7604 9.14291 46.6431 8.93771 46.489 8.76171C46.3349 8.58572 46.147 8.44253 45.9366 8.34064C45.7261 8.23875 45.4974 8.18024 45.2639 8.16858C45.0259 8.17648 44.7919 8.23182 44.5755 8.33138C44.3591 8.43094 44.1646 8.5727 44.0036 8.74839C43.8425 8.92409 43.7181 9.13017 43.6375 9.3546C43.5569 9.57903 43.5218 9.8173 43.5343 10.0555C43.5232 10.292 43.5595 10.5284 43.6409 10.7508C43.7223 10.9731 43.8472 11.1769 44.0083 11.3503C44.1694 11.5237 44.3635 11.663 44.5791 11.7603C44.7947 11.8575 45.0275 11.9107 45.2639 11.9166C45.496 11.9076 45.7238 11.8517 45.9338 11.7524C46.1438 11.653 46.3316 11.5122 46.4859 11.3384C46.6402 11.1646 46.7579 10.9614 46.8318 10.7409C46.9058 10.5205 46.9346 10.2873 46.9164 10.0555ZM50.4992 3.86379V12.9425H49.1402V3.86379H50.4992ZM55.8529 11.0608L56.9134 11.7619C56.6303 12.1851 56.2472 12.5316 55.7982 12.7709C55.3491 13.0101 54.8481 13.1346 54.3395 13.1333C53.9349 13.1391 53.5333 13.0626 53.1591 12.9085C52.7849 12.7543 52.4458 12.5258 52.1624 12.2366C51.8789 11.9474 51.657 11.6036 51.51 11.2261C51.3631 10.8485 51.2942 10.445 51.3074 10.04C51.2472 9.34373 51.4449 8.64959 51.8628 8.08991C52.2808 7.53023 52.8897 7.14414 53.5737 7.00524C54.2576 6.86634 54.9686 6.98434 55.5713 7.33675C56.1739 7.68916 56.626 8.25134 56.8413 8.91612L56.9803 9.27184L52.8621 10.9783C52.9904 11.2672 53.2022 11.5109 53.4701 11.6782C53.738 11.8454 54.0498 11.9284 54.3652 11.9166C54.6653 11.9119 54.9592 11.8309 55.2195 11.6812C55.4797 11.5315 55.6977 11.318 55.8529 11.0608ZM52.6047 9.94721L55.3742 8.8027C55.267 8.59259 55.1006 8.41857 54.8957 8.3022C54.6907 8.18582 54.4562 8.1322 54.2211 8.14796C53.9963 8.1578 53.7758 8.2124 53.5723 8.30856C53.3688 8.40472 53.1865 8.54052 53.036 8.70802C52.8856 8.87552 52.7699 9.07138 52.6958 9.28414C52.6218 9.4969 52.5908 9.72231 52.6047 9.94721Z" fill="white"/>
<path d="M7.28504 8.06006L0.376709 15.3086C0.45428 15.584 0.593687 15.8379 0.784273 16.051C0.974859 16.2641 1.21158 16.4308 1.47633 16.5382C1.74109 16.6457 2.02687 16.6911 2.31183 16.671C2.59679 16.6509 2.87339 16.5658 3.12048 16.4222L10.8936 11.9885L7.28504 8.06006Z" fill="#EA4335"/>
<path d="M14.2736 6.82804L10.912 4.8999L7.12842 8.22516L10.9275 11.9783L14.2633 10.0708C14.5588 9.91585 14.8063 9.68283 14.979 9.39702C15.1518 9.11121 15.2431 8.7835 15.2431 8.44942C15.2431 8.11534 15.1518 7.78764 14.979 7.50183C14.8063 7.21601 14.5588 6.983 14.2633 6.82804H14.2736Z" fill="#FBBC04"/>
<path d="M0.376003 1.55371C0.334243 1.70832 0.313465 1.86785 0.314229 2.02801V14.8341C0.314647 14.9942 0.335405 15.1536 0.376003 15.3084L7.52114 8.24547L0.376003 1.55371Z" fill="#4285F4"/>
<path d="M7.33652 8.43132L10.9091 4.89985L3.14622 0.445548C2.85418 0.274254 2.52202 0.183532 2.18358 0.182621C1.77484 0.18181 1.37704 0.314872 1.05083 0.561525C0.724613 0.808178 0.487878 1.15489 0.376709 1.54881L7.33652 8.43132Z" fill="#34A853"/>
</svg>
