<svg width="52" height="21" viewBox="0 0 52 21" fill="none" xmlns="http://www.w3.org/2000/svg">
<path d="M9.71628 2.76672C9.11037 3.46625 8.14091 4.01799 7.17146 3.93917C7.05028 2.99333 7.5249 1.98837 8.08032 1.36766C8.68623 0.648422 9.74657 0.13609 10.6049 0.0966797C10.7059 1.08193 10.3121 2.04748 9.71628 2.76672ZM10.5948 4.12637C9.19115 4.04755 7.98944 4.90472 7.32294 4.90472C6.64634 4.90472 5.62639 4.16578 4.51556 4.18548C3.07147 4.20519 1.72838 5.00325 0.991187 6.27422C-0.523585 8.81618 0.597346 12.5798 2.06163 14.6489C2.77862 15.6735 3.63699 16.7967 4.76802 16.7573C5.83846 16.7179 6.26259 16.0775 7.5552 16.0775C8.8579 16.0775 9.23155 16.7573 10.3626 16.7376C11.534 16.7179 12.2712 15.713 12.9882 14.6883C13.8062 13.5257 14.1394 12.3927 14.1596 12.3335C14.1394 12.3138 11.8975 11.4764 11.8774 8.95411C11.8572 6.84567 13.6446 5.84071 13.7254 5.7816C12.7155 4.32342 11.1402 4.16578 10.5948 4.12637ZM18.7039 1.26913V16.6292H21.1478V11.3778H24.5307C27.6209 11.3778 29.7921 9.30881 29.7921 6.31363C29.7921 3.31846 27.6613 1.26913 24.6115 1.26913H18.7039ZM21.1478 3.27905H23.9652C26.0859 3.27905 27.2977 4.38253 27.2977 6.32349C27.2977 8.26444 26.0859 9.37777 23.9551 9.37777H21.1478V3.27905ZM34.2556 16.7475C35.7906 16.7475 37.2144 15.9888 37.8607 14.7868H37.9112V16.6292H40.1733V8.98367C40.1733 6.76685 38.3556 5.33823 35.5583 5.33823C32.963 5.33823 31.0443 6.78655 30.9736 8.77677H33.175C33.3568 7.83092 34.2556 7.21021 35.4876 7.21021C36.9822 7.21021 37.8204 7.89004 37.8204 9.14131V9.98863L34.7706 10.166C31.9329 10.3335 30.398 11.4665 30.398 13.437C30.398 15.4272 31.9834 16.7475 34.2556 16.7475ZM34.912 14.9248C33.6093 14.9248 32.7812 14.3139 32.7812 13.3779C32.7812 12.4124 33.579 11.8508 35.1039 11.7621L37.8204 11.5946V12.4616C37.8204 13.9001 36.5681 14.9248 34.912 14.9248ZM43.1927 20.8067C45.576 20.8067 46.6969 19.92 47.6765 17.2302L51.9683 5.48602H49.4841L46.606 14.5602H46.5555L43.6775 5.48602H41.1226L45.2629 16.6687L45.0408 17.3485C44.6671 18.5012 44.0612 18.9446 42.9807 18.9446C42.7888 18.9446 42.4152 18.9249 42.2637 18.9052V20.7476C42.4051 20.787 43.011 20.8067 43.1927 20.8067Z" fill="white"/>
</svg>
