<svg width="29" height="19" viewBox="0 0 29 19" fill="none" xmlns="http://www.w3.org/2000/svg">
<path d="M25.6584 3.82178H24.3617H18.3618H17.0651L16.186 4.81225L13.3508 8.01477L12.4717 9.00524H11.175H5.28496H3.98827L4.8454 8.00377L5.252 7.53054L6.10913 6.52906H4.81244H3.14212H2.20807C1.49379 6.52906 0.911377 7.13435 0.911377 7.8607V10.4359V10.678C0.911377 11.4154 1.49379 12.0097 2.20807 12.0097H2.5707H16.1969H17.175C17.8892 12.0097 18.8672 11.5585 19.3398 11.0192L21.6035 8.44397L25.6584 3.82178Z" fill="white"/>
<path d="M27.3807 0.817646C28.095 0.817646 28.6774 1.42293 28.6774 2.14928V4.96662C28.6774 5.70397 28.095 6.29825 27.3807 6.29825H26.6775H24.7764H23.4797L24.3478 5.30778L24.7764 4.81254L25.6445 3.82207H17.0512L12.4688 8.99453H3.93042L10.0512 2.06124L10.282 1.79711C10.7655 1.25786 11.7435 0.806641 12.4578 0.806641H12.7545H27.3807V0.817646Z" fill="#FFDD00"/>
<path d="M28.6821 17.9088V17.5016C28.6821 17.4466 28.6491 17.4135 28.5722 17.4135H28.3084C28.2315 17.4135 28.1766 17.4025 28.1656 17.3695C28.1436 17.3365 28.1436 17.2705 28.1436 17.1604V15.6197H28.5722C28.6051 15.6197 28.6271 15.6087 28.6491 15.5867C28.6711 15.5647 28.6821 15.5426 28.6821 15.5096V15.0804C28.6821 15.0474 28.6711 15.0254 28.6491 15.0034C28.6271 14.9814 28.6051 14.9704 28.5722 14.9704H28.1436V14.4091C28.1436 14.3761 28.1326 14.3541 28.1216 14.3431C28.0996 14.3321 28.0777 14.3211 28.0557 14.3211H28.0447L27.4073 14.4311C27.3744 14.4421 27.3524 14.4531 27.3304 14.4641C27.3084 14.4861 27.2974 14.5082 27.2974 14.5302V14.9594H26.8689C26.8359 14.9594 26.8139 14.9704 26.792 14.9924C26.77 15.0144 26.759 15.0364 26.759 15.0694V15.4216C26.759 15.4546 26.77 15.4766 26.792 15.4876C26.8139 15.5096 26.8359 15.5206 26.8689 15.5316L27.2974 15.5977V17.1384C27.2974 17.3255 27.3194 17.4796 27.3524 17.6006C27.3963 17.7217 27.4513 17.8097 27.5172 17.8758C27.5941 17.9418 27.6821 17.9858 27.7919 18.0078C27.9018 18.0298 28.0337 18.0408 28.1766 18.0408C28.2535 18.0408 28.3194 18.0408 28.3853 18.0298C28.4403 18.0188 28.5172 18.0078 28.5941 17.9968C28.6491 17.9968 28.6821 17.9638 28.6821 17.9088ZM26.3964 17.8537V17.3805C26.3964 17.3475 26.3854 17.3255 26.3634 17.3145C26.3414 17.3035 26.3194 17.2925 26.2975 17.2925H26.2865C26.1876 17.3035 26.0887 17.3145 26.0008 17.3145C25.9128 17.3255 25.792 17.3255 25.6381 17.3255C25.5832 17.3255 25.5172 17.3145 25.4733 17.2925C25.4183 17.2705 25.3744 17.2375 25.3304 17.1934C25.2865 17.1494 25.2645 17.0834 25.2425 17.0063C25.2205 16.9293 25.2096 16.8303 25.2096 16.7092V16.269C25.2096 16.1479 25.2205 16.0489 25.2425 15.9719C25.2645 15.8948 25.2975 15.8288 25.3304 15.7848C25.3744 15.7407 25.4183 15.7077 25.4733 15.6857C25.5282 15.6637 25.5832 15.6527 25.6381 15.6527C25.792 15.6527 25.9128 15.6527 26.0008 15.6637C26.0887 15.6747 26.1876 15.6747 26.2865 15.6857H26.2975C26.3304 15.6857 26.3524 15.6747 26.3634 15.6637C26.3854 15.6527 26.3964 15.6307 26.3964 15.5977V15.1244C26.3964 15.0804 26.3854 15.0584 26.3744 15.0474C26.3524 15.0364 26.3304 15.0144 26.2865 15.0034C26.2095 14.9814 26.1216 14.9704 26.0008 14.9484C25.8799 14.9264 25.748 14.9264 25.5832 14.9264C25.2096 14.9264 24.9129 15.0364 24.6821 15.2675C24.4623 15.4986 24.3414 15.8288 24.3414 16.269V16.7092C24.3414 17.1384 24.4513 17.4796 24.6821 17.7107C24.9019 17.9418 25.2096 18.0518 25.5832 18.0518C25.737 18.0518 25.8799 18.0408 26.0008 18.0298C26.1216 18.0078 26.2205 17.9968 26.2865 17.9748C26.3304 17.9638 26.3524 17.9528 26.3744 17.9308C26.3964 17.9198 26.3964 17.8868 26.3964 17.8537ZM22.9568 17.2925C22.8909 17.3255 22.825 17.3475 22.748 17.3695C22.6711 17.3915 22.5942 17.4025 22.5173 17.4025C22.4074 17.4025 22.3195 17.3915 22.2645 17.3585C22.2096 17.3255 22.1876 17.2595 22.1876 17.1384V17.0944C22.1876 17.0284 22.1986 16.9733 22.2096 16.9293C22.2206 16.8853 22.2535 16.8413 22.2865 16.8082C22.3195 16.7752 22.3744 16.7532 22.4294 16.7312C22.4843 16.7202 22.5612 16.7092 22.6601 16.7092H22.9568V17.2925ZM23.792 16.0049C23.792 15.8068 23.759 15.6417 23.7041 15.5096C23.6491 15.3776 23.5612 15.2675 23.4623 15.1795C23.3524 15.0914 23.2316 15.0254 23.0777 14.9924C22.9239 14.9484 22.748 14.9264 22.5612 14.9264C22.3854 14.9264 22.2096 14.9374 22.0448 14.9594C21.8799 14.9814 21.7481 15.0034 21.6492 15.0364C21.5832 15.0584 21.5503 15.0914 21.5503 15.1575V15.5867C21.5503 15.6197 21.5612 15.6417 21.5722 15.6637C21.5942 15.6747 21.6162 15.6857 21.6382 15.6857H21.6601C21.7041 15.6857 21.759 15.6747 21.814 15.6747C21.8799 15.6747 21.9459 15.6637 22.0228 15.6637C22.0997 15.6637 22.1876 15.6527 22.2755 15.6527C22.3634 15.6527 22.4513 15.6527 22.5283 15.6527C22.6491 15.6527 22.748 15.6747 22.814 15.7187C22.8799 15.7628 22.9239 15.8618 22.9239 16.0159V16.203H22.6382C22.1876 16.203 21.847 16.269 21.6492 16.4121C21.4404 16.5551 21.3415 16.7862 21.3415 17.0944V17.1384C21.3415 17.3145 21.3634 17.4576 21.4184 17.5676C21.4733 17.6887 21.5393 17.7767 21.6272 17.8537C21.7151 17.9198 21.803 17.9748 21.9129 18.0078C22.0228 18.0408 22.1327 18.0518 22.2535 18.0518C22.4074 18.0518 22.5502 18.0298 22.6601 17.9858C22.77 17.9418 22.8799 17.8868 22.9898 17.8097V17.8978C22.9898 17.9308 23.0008 17.9528 23.0228 17.9748C23.0447 17.9968 23.0667 18.0078 23.0997 18.0078H23.6931C23.7261 18.0078 23.748 17.9968 23.77 17.9748C23.792 17.9528 23.803 17.9308 23.803 17.8978V16.0049H23.792ZM20.9678 17.9088V17.5016C20.9678 17.4466 20.9349 17.4135 20.858 17.4135H20.6052C20.5283 17.4135 20.4733 17.4025 20.4623 17.3695C20.4404 17.3365 20.4404 17.2705 20.4404 17.1604V15.6197H20.8689C20.9019 15.6197 20.9239 15.6087 20.9459 15.5867C20.9678 15.5647 20.9788 15.5426 20.9788 15.5096V15.0804C20.9788 15.0474 20.9678 15.0254 20.9459 15.0034C20.9239 14.9814 20.9019 14.9704 20.8689 14.9704H20.4404V14.4091C20.4404 14.3761 20.4294 14.3541 20.4184 14.3431C20.3964 14.3321 20.3744 14.3211 20.3525 14.3211H20.3415L19.7041 14.4311C19.6711 14.4421 19.6492 14.4531 19.6272 14.4641C19.6052 14.4861 19.5942 14.5082 19.5942 14.5302V14.9594H19.1657C19.1327 14.9594 19.1107 14.9704 19.0887 14.9924C19.0668 15.0144 19.0558 15.0364 19.0558 15.0694V15.4216C19.0558 15.4546 19.0668 15.4766 19.0887 15.4876C19.1107 15.5096 19.1327 15.5206 19.1657 15.5316L19.5942 15.5977V17.1384C19.5942 17.3255 19.6162 17.4796 19.6492 17.6006C19.6931 17.7217 19.7481 17.8097 19.814 17.8758C19.8799 17.9418 19.9788 17.9858 20.0887 18.0078C20.1986 18.0298 20.3305 18.0408 20.4733 18.0408C20.5503 18.0408 20.6162 18.0408 20.6821 18.0298C20.7371 18.0188 20.814 18.0078 20.8909 17.9968C20.9349 17.9968 20.9678 17.9638 20.9678 17.9088ZM18.6602 17.8978V16.1369C18.6602 15.9719 18.6492 15.8178 18.6162 15.6637C18.5942 15.5206 18.5393 15.3886 18.4734 15.2785C18.4074 15.1685 18.3085 15.0804 18.1876 15.0254C18.0668 14.9594 17.9129 14.9264 17.7151 14.9264C17.5503 14.9264 17.3964 14.9484 17.2646 14.9924C17.1327 15.0364 17.0008 15.1024 16.847 15.2125V15.0804C16.847 15.0474 16.836 15.0254 16.814 15.0034C16.7921 14.9814 16.7701 14.9704 16.7371 14.9704H16.1437C16.1107 14.9704 16.0888 14.9814 16.0668 15.0034C16.0448 15.0254 16.0338 15.0474 16.0338 15.0804V17.8978C16.0338 17.9308 16.0448 17.9528 16.0668 17.9748C16.0888 17.9968 16.1107 18.0078 16.1437 18.0078H16.7811C16.814 18.0078 16.836 17.9968 16.858 17.9748C16.88 17.9528 16.891 17.9308 16.891 17.8978V15.8178C16.9789 15.7738 17.0668 15.7297 17.1547 15.6967C17.2316 15.6637 17.3195 15.6527 17.3964 15.6527C17.4734 15.6527 17.5393 15.6637 17.5942 15.6747C17.6492 15.6857 17.6822 15.7187 17.7151 15.7517C17.7481 15.7958 17.7591 15.8398 17.7701 15.9058C17.7811 15.9719 17.7811 16.0489 17.7811 16.1369V17.8978C17.7811 17.9308 17.792 17.9528 17.814 17.9748C17.836 17.9968 17.858 18.0078 17.8909 18.0078H18.5283C18.5613 18.0078 18.5832 17.9968 18.6052 17.9748C18.6492 17.9528 18.6602 17.9198 18.6602 17.8978ZM14.6602 16.6762C14.6602 17.1054 14.5064 17.3255 14.1877 17.3255C14.0338 17.3255 13.913 17.2705 13.836 17.1604C13.7591 17.0504 13.7152 16.8853 13.7152 16.6762V16.302C13.7152 16.0819 13.7591 15.9278 13.836 15.8178C13.913 15.7077 14.0338 15.6527 14.1877 15.6527C14.4954 15.6527 14.6602 15.8728 14.6602 16.302V16.6762ZM15.5173 16.302C15.5173 16.0929 15.4844 15.8948 15.4294 15.7297C15.3745 15.5647 15.2866 15.4216 15.1767 15.3005C15.0668 15.1795 14.9239 15.0914 14.7591 15.0254C14.5943 14.9594 14.4075 14.9264 14.1877 14.9264C13.9679 14.9264 13.7811 14.9594 13.6163 15.0254C13.4514 15.0914 13.3086 15.1795 13.1987 15.3005C13.0888 15.4216 13.0009 15.5647 12.9459 15.7297C12.891 15.8948 12.858 16.0929 12.858 16.302V16.6762C12.858 16.8853 12.891 17.0834 12.9459 17.2485C13.0009 17.4135 13.0888 17.5566 13.1987 17.6777C13.3086 17.7987 13.4514 17.8868 13.6163 17.9528C13.7811 18.0188 13.9679 18.0518 14.1877 18.0518C14.4075 18.0518 14.5943 18.0188 14.7591 17.9528C14.9239 17.8868 15.0668 17.7987 15.1767 17.6777C15.2866 17.5566 15.3745 17.4135 15.4294 17.2485C15.4844 17.0834 15.5173 16.8853 15.5173 16.6762V16.302ZM12.5723 17.8537V17.3805C12.5723 17.3475 12.5613 17.3255 12.5393 17.3145C12.5174 17.3035 12.4954 17.2925 12.4624 17.2925H12.4514C12.3525 17.3035 12.2536 17.3145 12.1657 17.3145C12.0778 17.3145 11.9569 17.3255 11.8031 17.3255C11.7481 17.3255 11.6822 17.3145 11.6383 17.2925C11.5833 17.2705 11.5394 17.2375 11.4954 17.1934C11.4514 17.1494 11.4295 17.0834 11.4075 17.0063C11.3855 16.9293 11.3745 16.8303 11.3745 16.7092V16.269C11.3745 16.1479 11.3855 16.0489 11.4075 15.9719C11.4295 15.8948 11.4624 15.8288 11.4954 15.7848C11.5394 15.7407 11.5833 15.7077 11.6383 15.6857C11.6932 15.6637 11.7481 15.6527 11.8031 15.6527C11.9569 15.6527 12.0778 15.6527 12.1657 15.6637C12.2536 15.6747 12.3525 15.6747 12.4514 15.6857H12.4624C12.4954 15.6857 12.5174 15.6747 12.5393 15.6637C12.5613 15.6527 12.5723 15.6307 12.5723 15.5977V15.1244C12.5723 15.0804 12.5613 15.0584 12.5503 15.0474C12.5284 15.0364 12.5064 15.0144 12.4624 15.0034C12.3855 14.9814 12.2976 14.9704 12.1767 14.9484C12.0558 14.9264 11.924 14.9264 11.7591 14.9264C11.3855 14.9264 11.0888 15.0364 10.858 15.2675C10.6383 15.4986 10.5174 15.8288 10.5174 16.269V16.7092C10.5174 17.1384 10.6273 17.4796 10.858 17.7107C11.0778 17.9418 11.3855 18.0518 11.7591 18.0518C11.913 18.0518 12.0558 18.0408 12.1767 18.0298C12.2976 18.0078 12.3855 17.9968 12.4624 17.9748C12.5064 17.9638 12.5284 17.9528 12.5503 17.9308C12.5723 17.9198 12.5723 17.8868 12.5723 17.8537ZM9.97893 17.8978V16.1369C9.97893 15.9719 9.96795 15.8178 9.93498 15.6637C9.913 15.5206 9.85806 15.3886 9.79212 15.2785C9.72619 15.1685 9.62729 15.0804 9.50641 15.0254C9.38553 14.9594 9.23169 14.9264 9.03389 14.9264C8.86905 14.9264 8.71521 14.9484 8.58334 14.9924C8.45148 15.0364 8.31961 15.1024 8.16576 15.2125V15.0804C8.16576 15.0474 8.15477 15.0254 8.1328 15.0034C8.11082 14.9814 8.08884 14.9704 8.05587 14.9704H7.46247C7.42951 14.9704 7.40753 14.9814 7.38555 15.0034C7.36357 15.0254 7.35259 15.0474 7.35259 15.0804V17.8978C7.35259 17.9308 7.36357 17.9528 7.38555 17.9748C7.40753 17.9968 7.42951 18.0078 7.46247 18.0078H8.09983C8.1328 18.0078 8.15478 17.9968 8.17675 17.9748C8.19873 17.9528 8.20972 17.9308 8.20972 17.8978V15.8178C8.29763 15.7738 8.38554 15.7297 8.47345 15.6967C8.55038 15.6637 8.63829 15.6527 8.71521 15.6527C8.79213 15.6527 8.85807 15.6637 8.91301 15.6747C8.96795 15.6857 9.00092 15.7187 9.03389 15.7517C9.06685 15.7958 9.07784 15.8398 9.08883 15.9058C9.09982 15.9719 9.09982 16.0489 9.09982 16.1369V17.8978C9.09982 17.9308 9.11081 17.9528 9.13279 17.9748C9.15477 17.9968 9.17674 18.0078 9.20971 18.0078H9.84707C9.88003 18.0078 9.90201 17.9968 9.92399 17.9748C9.95696 17.9528 9.97893 17.9198 9.97893 17.8978ZM5.89106 17.2925C5.82513 17.3255 5.75919 17.3475 5.68227 17.3695C5.60535 17.3915 5.52843 17.4025 5.4515 17.4025C5.34162 17.4025 5.2537 17.3915 5.19876 17.3585C5.14382 17.3255 5.12184 17.2595 5.12184 17.1384V17.0944C5.12184 17.0284 5.13283 16.9733 5.14382 16.9293C5.1548 16.8853 5.18777 16.8413 5.22074 16.8082C5.2537 16.7752 5.30865 16.7532 5.36359 16.7312C5.41854 16.7202 5.49546 16.7092 5.59436 16.7092H5.89106V17.2925ZM6.73721 16.0049C6.73721 15.8068 6.70424 15.6417 6.64929 15.5096C6.59435 15.3776 6.50644 15.2675 6.40754 15.1795C6.29765 15.0914 6.17677 15.0254 6.02293 14.9924C5.86908 14.9484 5.69326 14.9264 5.50645 14.9264C5.33063 14.9264 5.1548 14.9374 4.98997 14.9594C4.82514 14.9814 4.69327 15.0034 4.59437 15.0364C4.52844 15.0584 4.49547 15.0914 4.49547 15.1575V15.5867C4.49547 15.6197 4.50646 15.6417 4.51745 15.6637C4.53942 15.6747 4.5614 15.6857 4.58338 15.6857H4.60536C4.64931 15.6857 4.70426 15.6747 4.7592 15.6747C4.82514 15.6747 4.89107 15.6637 4.97898 15.6637C5.0559 15.6637 5.14381 15.6527 5.23173 15.6527C5.31964 15.6527 5.40755 15.6527 5.48447 15.6527C5.60535 15.6527 5.70425 15.6747 5.77018 15.7187C5.83612 15.7628 5.88007 15.8618 5.88007 16.0159V16.203H5.59436C5.14382 16.203 4.80316 16.269 4.60536 16.4121C4.40756 16.5551 4.29767 16.7862 4.29767 17.0944V17.1384C4.29767 17.3145 4.31965 17.4576 4.37459 17.5676C4.42954 17.6887 4.49547 17.7767 4.58338 17.8537C4.67129 17.9198 4.7592 17.9748 4.86909 18.0078C4.97898 18.0408 5.08887 18.0518 5.20975 18.0518C5.36359 18.0518 5.50645 18.0298 5.61634 17.9858C5.72623 17.9418 5.83612 17.8868 5.946 17.8097V17.8978C5.946 17.9308 5.95699 17.9528 5.97897 17.9748C6.00095 17.9968 6.02293 18.0078 6.05589 18.0078H6.64929C6.68226 18.0078 6.70424 17.9968 6.72622 17.9748C6.74819 17.9528 6.75918 17.9308 6.75918 17.8978V16.0049H6.73721ZM2.95702 16.8413C2.95702 16.9843 2.90208 17.1054 2.80318 17.1824C2.70428 17.2595 2.50648 17.3035 2.24274 17.3035H2.15483C2.11088 17.3035 2.06692 17.3035 2.02297 17.3035C1.97901 17.3035 1.93505 17.3035 1.8911 17.3035H1.80319V16.313H2.39659C2.60538 16.313 2.75922 16.357 2.83614 16.4561C2.91307 16.5551 2.95702 16.6652 2.95702 16.7862V16.8413ZM2.93504 15.2675C2.93504 15.3225 2.92406 15.3776 2.91307 15.4326C2.89109 15.4876 2.86911 15.5316 2.82516 15.5647C2.7812 15.5977 2.72626 15.6307 2.66032 15.6527C2.59439 15.6747 2.50648 15.6857 2.39659 15.6857H1.80319V14.7723C1.82517 14.7723 1.84714 14.7723 1.88011 14.7723C1.91308 14.7723 1.95703 14.7723 2.00099 14.7723H2.12187H2.20978C2.4845 14.7723 2.67131 14.8053 2.7812 14.8713C2.89109 14.9374 2.94603 15.0474 2.94603 15.1905V15.2675H2.93504ZM3.83614 16.7862C3.83614 16.5991 3.79218 16.4451 3.70427 16.313C3.61636 16.1809 3.50647 16.0709 3.36361 16.0049C3.50647 15.9388 3.61636 15.8288 3.69328 15.6967C3.7702 15.5537 3.81416 15.3996 3.81416 15.2345V15.1355C3.81416 14.9264 3.7702 14.7503 3.69328 14.6072C3.61636 14.4641 3.49548 14.3541 3.35262 14.266C3.20977 14.178 3.03395 14.123 2.82516 14.079C2.61637 14.0459 2.39659 14.0239 2.14384 14.0239C2.05593 14.0239 1.96802 14.0239 1.88011 14.0239C1.7922 14.0239 1.70429 14.0349 1.61638 14.0349C1.52846 14.0349 1.45154 14.0459 1.37462 14.0569C1.2977 14.0679 1.24275 14.0679 1.1988 14.079C1.0999 14.101 1.02298 14.123 0.97902 14.178C0.935064 14.222 0.913086 14.3101 0.913086 14.4311V17.6446C0.913086 17.7657 0.935064 17.8427 0.97902 17.8978C1.02298 17.9418 1.0999 17.9748 1.1988 17.9968C1.25374 18.0078 1.31968 18.0188 1.38561 18.0188C1.46253 18.0298 1.53945 18.0298 1.62736 18.0408C1.71528 18.0408 1.80319 18.0518 1.8911 18.0518C1.97901 18.0518 2.07791 18.0518 2.16582 18.0518C2.39659 18.0518 2.61637 18.0298 2.81417 17.9968C3.01197 17.9638 3.19878 17.8978 3.34163 17.8097C3.49548 17.7217 3.60537 17.6006 3.70427 17.4466C3.79218 17.2925 3.83614 17.0944 3.83614 16.8633V16.7862Z" fill="white"/>
</svg>
