<svg width="44" height="13" viewBox="0 0 44 13" fill="none" xmlns="http://www.w3.org/2000/svg">
<path d="M10.2648 4.27966H7.29736C7.29736 3.79193 7.24009 3.46471 7.12609 3.29799C6.94946 3.05158 6.46218 2.9281 5.66452 2.9281C4.88972 2.9281 4.37619 2.99902 4.12564 3.14116C3.87508 3.28386 3.74952 3.59384 3.74952 4.07112C3.74952 4.50317 3.86069 4.78801 4.08331 4.92421C4.24273 5.02114 4.4535 5.07793 4.71591 5.09489L5.31436 5.13727C6.59705 5.22233 7.39809 5.28252 7.71749 5.31671C8.73185 5.419 9.46715 5.68915 9.9234 6.12686C10.2823 6.46849 10.4965 6.91496 10.5647 7.46598C10.6048 7.79575 10.6246 8.16903 10.6246 8.58357C10.6246 9.53924 10.5334 10.2389 10.3514 10.6823C10.021 11.4961 9.27867 12.0101 8.1238 12.226C7.6399 12.3172 6.8998 12.3627 5.90407 12.3627C4.24217 12.3627 3.0842 12.2638 2.43016 12.0646C1.6277 11.8208 1.09838 11.3265 0.842461 10.5825C0.69969 10.1683 0.62915 9.47821 0.62915 8.51236H3.59659C3.59659 8.62002 3.59688 8.70254 3.59688 8.75933C3.59688 9.27475 3.74473 9.60593 4.04014 9.75372C4.24471 9.85545 4.4916 9.90885 4.78193 9.91535H5.87304C6.42973 9.91535 6.78497 9.88681 6.93818 9.82945C7.21102 9.72207 7.39019 9.54913 7.47569 9.30979C7.52111 9.16229 7.54369 8.97183 7.54369 8.73842C7.54369 8.21594 7.35323 7.89804 6.97288 7.78388C6.83039 7.73895 6.16902 7.67594 4.98791 7.59653C4.0393 7.52871 3.38046 7.46344 3.01168 7.40014C2.04022 7.21816 1.39267 6.84375 1.0696 6.27549C0.785465 5.79285 0.64354 5.06239 0.64354 4.08496C0.64354 3.34094 0.720287 2.74414 0.87378 2.29541C1.02727 1.84639 1.27473 1.50561 1.61614 1.27248C2.1164 0.914459 2.75661 0.704505 3.53565 0.641773C4.18404 0.584975 4.90326 0.556152 5.69443 0.556152C6.93987 0.556152 7.82754 0.627927 8.35658 0.770062C9.64801 1.11763 10.2936 2.09082 10.2936 3.6902C10.2936 3.82132 10.284 4.01743 10.2648 4.27966Z" fill="white"/>
<path d="M23.3142 12.363V0.493652H27.9633H28.693H29.257C30.0721 0.493652 30.694 0.560058 31.1215 0.693434C32.0989 1.00003 32.7546 1.6282 33.0907 2.57709C33.2639 3.07527 33.3508 3.82522 33.3508 4.82667C33.3508 6.03073 33.2546 6.89569 33.0641 7.4227C32.6829 8.46427 31.8985 9.06447 30.7138 9.21988C30.5744 9.24334 29.9816 9.26396 28.9351 9.28092L28.4057 9.29844H26.504V12.363H23.3142ZM26.504 6.54502H28.4923C29.123 6.52241 29.5064 6.47381 29.6444 6.3978C29.8329 6.29409 29.9596 6.08611 30.0225 5.77443C30.0628 5.56702 30.0829 5.25845 30.0829 4.84871C30.0829 4.34658 30.0428 3.97442 29.9624 3.73141C29.8478 3.3909 29.573 3.18378 29.1379 3.10833C29.0516 3.09703 28.8456 3.09081 28.5192 3.09081H26.504V6.54502Z" fill="white"/>
<path d="M40.158 10.3118H35.8932L35.3201 12.363H32.02L35.5811 0.493652H40.3927L43.9973 12.363H40.7666L40.158 10.3118ZM39.5245 7.99944L38.03 2.85429L36.5797 7.99944H39.5245Z" fill="white"/>
<path d="M18.9102 2.16346C20.2256 2.16346 21.3999 2.77043 22.1716 3.72102L22.8592 2.24456C21.7839 1.22672 20.3204 0.599121 18.7062 0.599121C16.1927 0.599121 14.0427 2.11938 13.1604 4.27148H11.8196L11.0278 5.97117H12.7527C12.7397 6.12885 12.7312 6.28653 12.7312 6.44759C12.7312 6.64229 12.7414 6.83501 12.7606 7.02518H11.8938L11.1023 8.72544H13.2016C14.109 10.823 16.2322 12.2955 18.7062 12.2955C19.953 12.2955 21.1099 11.9214 22.0678 11.2822V9.19847C21.2964 10.0781 20.168 10.634 18.9102 10.634C17.4398 10.634 16.1464 9.87467 15.3934 8.72544H19.7888L20.5805 7.02518H14.7467C14.7165 6.8206 14.7004 6.61149 14.7004 6.39843C14.7004 6.25431 14.7077 6.11189 14.7218 5.97117H21.0712L21.8627 4.27148H15.2706C15.9997 3.01147 17.3563 2.16346 18.9102 2.16346Z" fill="#FFBE00"/>
<path d="M18.9158 2.19292C20.1694 2.19292 21.3438 2.75412 22.1377 3.73183L22.1891 3.79513L22.2238 3.72138L22.9111 2.24492L22.9264 2.21129L22.9001 2.18586C21.7698 1.11603 20.2823 0.526855 18.7118 0.526855C17.4853 0.526855 16.3053 0.885727 15.2988 1.56476C14.3161 2.22768 13.5622 3.14973 13.1192 4.23058L13.166 4.19893H11.8252H11.7925L11.7789 4.22832L10.9875 5.9283L10.9536 6.00092H11.0335H12.7583L12.7075 5.94553C12.6931 6.12214 12.6861 6.27897 12.6861 6.42619C12.6861 6.61693 12.6959 6.81332 12.7154 7.00887L12.7662 6.95292H11.8994H11.8672L11.8537 6.9823L11.0617 8.68228L11.0281 8.7549H11.108H13.2072L13.1604 8.7241C14.1067 10.9115 16.2858 12.325 18.7118 12.325C19.9279 12.325 21.0997 11.972 22.1016 11.3035L22.1239 11.2885V11.2608V9.17707V9.04172L22.035 9.14344C21.2447 10.0446 20.1079 10.5611 18.9158 10.5611C17.5135 10.5611 16.2147 9.8561 15.4413 8.67578L15.399 8.7549H19.7944H19.8272L19.8407 8.7258L20.6324 7.02526L20.6663 6.95292H20.5862H14.7523L14.8028 6.99643C14.7726 6.79043 14.7571 6.58246 14.7571 6.37703C14.7571 6.23715 14.7641 6.0953 14.7782 5.95486L14.7275 6.00092H21.0768H21.1096L21.1231 5.97153L21.9146 4.27155L21.9487 4.19893H21.8683H15.2763L15.3203 4.27551C16.0635 2.99092 17.4415 2.19292 18.9158 2.19292ZM15.2763 4.30094H21.8683L21.822 4.22832L21.0308 5.9283L21.0768 5.89891H14.7275H14.6815L14.6764 5.94497C14.6623 6.08852 14.6552 6.23404 14.6552 6.37703C14.6552 6.58726 14.671 6.80089 14.7018 7.01141L14.7086 7.05493H14.7523H20.5862L20.5402 6.9823L19.7487 8.68228L19.7944 8.65289H15.399H15.3045L15.3564 8.73145C16.1484 9.94144 17.4793 10.6629 18.9158 10.6629C20.137 10.6629 21.302 10.1339 22.1118 9.2107L22.0223 9.17707V11.2608L22.0449 11.2187C21.0599 11.8757 19.9076 12.223 18.7118 12.223C16.3262 12.223 14.184 10.8335 13.254 8.68341L13.2405 8.65289H13.2072H11.108L11.1545 8.7258L11.9457 7.02526L11.8994 7.05493H12.7662H12.8223L12.817 6.99869C12.7978 6.80654 12.7876 6.61354 12.7876 6.42619C12.7876 6.28208 12.7947 6.12751 12.8091 5.95401L12.8136 5.89891H12.7583H11.0335L11.0795 5.97153L11.8712 4.27155L11.8252 4.30094H13.166H13.2001L13.2128 4.26929C13.6488 3.20709 14.3897 2.30115 15.3558 1.64925C16.3451 0.982085 17.5059 0.629148 18.7118 0.629148C20.2563 0.629148 21.7185 1.20815 22.8299 2.26018L22.8186 2.2014L22.1315 3.67814L22.217 3.6674C21.403 2.66567 20.2002 2.09091 18.9158 2.09091C17.4048 2.09091 15.9938 2.90841 15.232 4.22436L15.1877 4.30094H15.2763Z" fill="#10298E"/>
</svg>
