<svg width="342" height="28" viewBox="0 0 342 28" fill="none" xmlns="http://www.w3.org/2000/svg">
<g clip-path="url(#clip0_1137_1080)">
<path d="M27.6579 20.5639C29.5413 18.7157 31.2889 17.0005 32.9721 15.3468C34.2514 16.5952 35.412 17.7268 36.5013 18.7903C33.6915 21.4913 30.7052 24.3609 27.6341 27.3083C24.6343 24.39 21.553 21.394 18.3971 18.3266C15.1699 21.4491 12.0954 24.4257 9.05827 27.3634C5.98379 24.3998 3.00432 21.5302 0.0859375 18.7157C1.13452 17.7041 2.30187 16.5822 3.5371 15.389C5.23044 17.0524 6.99165 18.7838 8.79019 20.551C11.997 17.4447 15.0715 14.4681 18.2308 11.4072C21.441 14.5265 24.5291 17.5225 27.6579 20.5575V20.5639Z" fill="#5D59E1"/>
<path d="M9.06057 16.6249C5.93179 13.6095 2.95232 10.7334 0 7.88327C1.10288 6.82298 2.27023 5.69461 3.50885 4.50462C5.25988 6.2134 7.02788 7.94163 8.85356 9.72499C12.0231 6.65113 15.0975 3.67455 18.2399 0.629883C21.4366 3.72643 24.5246 6.71922 27.6805 9.78011C29.5945 7.91893 31.3692 6.19395 33.1338 4.47868C34.3589 5.68164 35.5059 6.80353 36.5748 7.85409C33.67 10.6394 30.6634 13.5187 27.6059 16.4531C24.6332 13.5738 21.5621 10.5972 18.4198 7.55254C15.2231 10.6491 12.1384 13.6419 9.06057 16.6249Z" fill="#5D59E1"/>
<path d="M50.3215 4.20605L56.3076 15.7881L62.2936 4.20605H65.8262L71.8123 15.7881L77.7984 4.20605H83.6454L73.3258 23.7938H69.9425L63.8852 12.082L57.8278 23.7938H54.4445L44.125 4.20605H50.3317H50.3215Z" fill="white"/>
<path d="M110.797 4.20605V9.03408H92.0446V12.1177H110.193V15.5741H92.0446V18.969H110.797V23.797H85.8516V4.20605H110.797Z" fill="white"/>
<path d="M135.331 4.20605C138.497 4.20605 140.931 6.53738 140.931 9.55612C140.931 11.3297 140.052 12.8505 138.694 13.7421C140.489 14.5819 141.687 16.3361 141.687 18.4405C141.687 21.4624 139.254 23.7905 136.085 23.7905H113.043V4.20605H135.328H135.331ZM119.239 12.2701H133.044C134.001 12.2701 134.737 11.5664 134.737 10.6521C134.737 9.73769 134.001 9.03408 133.044 9.03408H119.239V12.2733V12.2701ZM119.239 18.9657H133.801C134.758 18.9657 135.498 18.2589 135.498 17.3478C135.498 16.4366 134.761 15.7298 133.801 15.7298H119.239V18.969V18.9657Z" fill="white"/>
<path d="M148.583 4.20605L154.569 15.7881L160.555 4.20605H164.088L170.074 15.7881L176.06 4.20605H181.907L171.588 23.7938H168.204L162.147 12.082L156.09 23.7938H152.706L142.387 4.20605H148.593H148.583Z" fill="white"/>
<path d="M190.334 4.20605V13.9983C190.334 16.803 192.594 18.9657 195.533 18.9657H203.49C206.429 18.9657 208.689 16.803 208.689 13.9983V4.20605H214.882V13.9983C214.882 19.5267 210.426 23.7938 204.63 23.7938H194.392C188.6 23.7938 184.141 19.5299 184.141 13.9983V4.20605H190.334Z" fill="white"/>
<path d="M221.416 4.20605L238.832 16.6733V4.20605H245.025V23.7938H240.749L223.334 11.3265V23.7938H217.141V4.20605H221.416Z" fill="white"/>
<path d="M266.186 4.20605C271.982 4.20605 276.438 8.46989 276.438 14.0015C276.438 19.5332 271.982 23.7938 266.186 23.7938H247.305V4.20605H266.186ZM253.498 18.9657H265.046C267.984 18.9657 270.245 16.803 270.245 13.9983C270.245 11.1936 267.984 9.03084 265.046 9.03084H253.498V18.9657Z" fill="white"/>
<path d="M303.617 4.20605V9.03408H284.865V12.1177H303.013V15.5741H284.865V18.969H303.617V23.797H278.672V4.20605H303.617Z" fill="white"/>
<path d="M328.112 4.20605C332.004 4.20605 335.001 7.07239 335.001 10.7882C335.001 13.8913 332.897 16.3945 329.941 17.1013L335.001 23.797H328.808L323.955 17.3704H312.064V23.797H305.871V4.20605H328.115H328.112ZM312.061 12.5392H326.972C328.01 12.5392 328.808 11.774 328.808 10.785C328.808 9.79606 328.01 9.03084 326.972 9.03084H312.061V12.5392Z" fill="white"/>
</g>
<path d="M339.5 0.629883C339.006 0.629883 338.522 0.776505 338.111 1.05121C337.7 1.32591 337.38 1.71636 337.19 2.17317C337.001 2.62999 336.952 3.13266 337.048 3.61761C337.145 4.10256 337.383 4.54802 337.732 4.89765C338.082 5.24728 338.527 5.48538 339.012 5.58184C339.497 5.67831 340 5.6288 340.457 5.43958C340.914 5.25036 341.304 4.92993 341.579 4.51881C341.853 4.10768 342 3.62434 342 3.12988C342 2.80158 341.935 2.47649 341.81 2.17317C341.684 1.86986 341.5 1.59426 341.268 1.36212C341.036 1.12997 340.76 0.945821 340.457 0.820184C340.153 0.694547 339.828 0.629883 339.5 0.629883ZM339.5 5.12988C339.104 5.12988 338.718 5.01258 338.389 4.79282C338.06 4.57306 337.804 4.2607 337.652 3.89525C337.501 3.5298 337.461 3.12766 337.538 2.7397C337.616 2.35174 337.806 1.99537 338.086 1.71567C338.365 1.43596 338.722 1.24548 339.11 1.16831C339.498 1.09114 339.9 1.13075 340.265 1.28212C340.631 1.4335 340.943 1.68984 341.163 2.01874C341.383 2.34764 341.5 2.73432 341.5 3.12988C341.5 3.66031 341.289 4.16902 340.914 4.5441C340.539 4.91917 340.03 5.12988 339.5 5.12988ZM339.563 3.44738H339.203V4.25488H338.75V2.05738H339.565C339.779 2.04424 339.991 2.10515 340.165 2.22988C340.237 2.29075 340.293 2.36779 340.33 2.45468C340.366 2.54158 340.382 2.63588 340.375 2.72988C340.38 2.86172 340.346 2.9921 340.278 3.10488C340.207 3.21632 340.104 3.30354 339.983 3.35488L340.458 4.25238V4.27738H339.973L339.563 3.46988M339.203 3.10488H339.568C339.663 3.11024 339.757 3.07894 339.83 3.01738C339.863 2.98521 339.888 2.94608 339.904 2.90283C339.92 2.85958 339.927 2.81331 339.923 2.76738C339.926 2.7219 339.92 2.67614 339.905 2.63306C339.89 2.58999 339.866 2.55057 339.835 2.51738C339.798 2.48514 339.755 2.46074 339.709 2.44569C339.663 2.43064 339.614 2.42526 339.565 2.42988H339.203V3.10488Z" fill="white"/>
<defs>
<clipPath id="clip0_1137_1080">
<rect width="335" height="26.7406" fill="white" transform="translate(0 0.629883)"/>
</clipPath>
</defs>
</svg>
