<svg width="18" height="22" viewBox="0 0 18 22" fill="none" xmlns="http://www.w3.org/2000/svg">
<path d="M13.202 0C13.2532 0 13.3044 0 13.3585 0C13.4841 1.56737 12.8919 2.7385 12.1722 3.58659C11.4661 4.42883 10.499 5.2457 8.93502 5.12175C8.83069 3.57683 9.42384 2.49256 10.1426 1.64642C10.8091 0.857855 12.0312 0.156151 13.202 0Z" fill="white"/>
<path d="M17.9356 16.0892C17.9356 16.1049 17.9356 16.1185 17.9356 16.1332C17.496 17.478 16.8691 18.6306 16.104 19.7002C15.4055 20.6713 14.5496 21.9781 13.0213 21.9781C11.7007 21.9781 10.8236 21.1202 9.47014 21.0968C8.03846 21.0734 7.25113 21.8141 5.94214 22.0005C5.79241 22.0005 5.64267 22.0005 5.49583 22.0005C4.53461 21.86 3.75888 21.091 3.19374 20.398C1.52732 18.3505 0.239579 15.7057 0 12.3211C0 11.9893 0 11.6585 0 11.3266C0.101435 8.90435 1.26648 6.9349 2.81505 5.98042C3.63233 5.47293 4.75584 5.04059 6.00687 5.23383C6.54302 5.31776 7.09077 5.50319 7.57089 5.68666C8.0259 5.86331 8.5949 6.17659 9.13395 6.16C9.49912 6.14926 9.86235 5.957 10.2304 5.82134C11.3085 5.42804 12.3654 4.97715 13.7584 5.18893C15.4326 5.44463 16.6208 6.19611 17.355 7.35553C15.9388 8.26608 14.8191 9.63826 15.0104 11.9815C15.1804 14.11 16.4054 15.3553 17.9356 16.0892Z" fill="white"/>
</svg>
