<svg width="37" height="28" viewBox="0 0 37 28" fill="none" xmlns="http://www.w3.org/2000/svg">
<path d="M27.6579 20.5674C29.5413 18.7192 31.2889 17.0039 32.9721 15.3502C34.2514 16.5986 35.412 17.7302 36.5013 18.7937C33.6915 21.4947 30.7052 24.3643 27.6341 27.3117C24.6343 24.3935 21.553 21.3974 18.3971 18.3301C15.1699 21.4525 12.0954 24.4291 9.05827 27.3668C5.98379 24.4032 3.00432 21.5336 0.0859375 18.7192C1.13452 17.7075 2.30187 16.5856 3.5371 15.3924C5.23044 17.0558 6.99165 18.7872 8.79019 20.5544C11.997 17.4481 15.0715 14.4715 18.2308 11.4106C21.441 14.5299 24.5291 17.5259 27.6579 20.5609V20.5674Z" fill="#5D59E1"/>
<path d="M9.06057 16.6284C5.93179 13.6129 2.95232 10.7368 0 7.88669C1.10288 6.8264 2.27023 5.69802 3.50885 4.50804C5.25988 6.21682 7.02788 7.94505 8.85356 9.7284C12.0231 6.65455 15.0975 3.67797 18.2399 0.633301C21.4366 3.72985 24.5246 6.72264 27.6805 9.78352C29.5945 7.92235 31.3692 6.19736 33.1338 4.4821C34.3589 5.68505 35.5059 6.80695 36.5748 7.8575C33.67 10.6428 30.6634 13.5221 27.6059 16.4565C24.6332 13.5772 21.5621 10.6006 18.4198 7.55595C15.2231 10.6525 12.1384 13.6453 9.06057 16.6284Z" fill="#5D59E1"/>
</svg>
