<svg width="12" height="10" viewBox="0 0 12 10" fill="none" xmlns="http://www.w3.org/2000/svg">
<path d="M11.8473 5.33141L7.62851 9.55016C7.54056 9.63812 7.42126 9.68753 7.29687 9.68753C7.17248 9.68753 7.05319 9.63812 6.96523 9.55016C6.87728 9.46221 6.82786 9.34291 6.82786 9.21852C6.82786 9.09413 6.87728 8.97484 6.96523 8.88688L10.3842 5.46852H1.20312C1.0788 5.46852 0.959576 5.41914 0.871669 5.33123C0.783761 5.24332 0.734375 5.12409 0.734375 4.99977C0.734375 4.87545 0.783761 4.75622 0.871669 4.66832C0.959576 4.58041 1.0788 4.53102 1.20312 4.53102H10.3842L6.96523 1.11266C6.87728 1.02471 6.82786 0.905412 6.82786 0.781022C6.82786 0.656633 6.87728 0.537338 6.96523 0.449382C7.05319 0.361425 7.17248 0.312012 7.29687 0.312012C7.42126 0.312012 7.54056 0.361425 7.62851 0.449382L11.8473 4.66813C11.8908 4.71167 11.9254 4.76336 11.949 4.82027C11.9726 4.87717 11.9847 4.93817 11.9847 4.99977C11.9847 5.06137 11.9726 5.12237 11.949 5.17928C11.9254 5.23618 11.8908 5.28788 11.8473 5.33141Z" fill="#24252A"/>
</svg>
