<svg width="94" height="45" viewBox="0 0 94 45" fill="none" xmlns="http://www.w3.org/2000/svg">
<path d="M15.4406 23.0979C15.3325 19.2768 18.3552 16.0858 22.2 15.977C26.0383 15.8683 29.243 18.8767 29.3513 22.7041C29.4597 26.5316 26.4367 29.7162 22.592 29.825C18.7472 29.9339 15.549 26.9253 15.4406 23.0979Z" fill="#1ABCFE"/>
<path d="M1.93183 37.3322C1.82367 33.5112 4.84644 30.3202 8.69121 30.2113L15.6466 30.0145L15.8426 36.9385C15.9507 40.7595 12.928 43.9506 9.08318 44.0594C5.23841 44.1682 2.04016 41.1597 1.93183 37.3322Z" fill="#0ACF83"/>
<path d="M14.8532 2.33795L15.245 16.1796L22.2004 15.9827C26.0387 15.8741 29.0681 12.6893 28.9597 8.86183C28.8514 5.03438 25.6532 2.02584 21.8084 2.13467L14.853 2.33154L14.8532 2.33795Z" fill="#FF7262"/>
<path d="M1.14795 9.64956C1.25611 13.4706 4.45454 16.4856 8.29931 16.3767L15.2547 16.1799L14.8629 2.33819L7.90752 2.53506C4.06274 2.64389 1.0398 5.82852 1.14795 9.64956Z" fill="#F24E1E"/>
<path d="M1.54004 23.4909C1.6482 27.3119 4.84663 30.3269 8.6914 30.218L15.6468 30.0212L15.255 16.1795L8.29961 16.3764C4.45483 16.4852 1.43189 19.6698 1.54004 23.4909Z" fill="#A259FF"/>
<path d="M40.2526 15.5552L40.6684 30.2432L42.5684 30.1958L42.3704 23.2012L46.9429 23.0718L46.8905 21.219L42.3115 21.3486L42.1981 17.3416L48.1617 17.1728L48.1094 15.3264L40.2524 15.5488L40.2526 15.5552ZM51.6075 18.2238C52.2966 18.2043 52.8348 17.6373 52.8154 16.9513C52.796 16.2653 52.2265 15.7296 51.5374 15.7491C50.8483 15.7686 50.3101 16.3357 50.3295 17.0217C50.3489 17.7076 50.9184 18.2433 51.6075 18.2238ZM50.7001 20.0974L50.9794 29.9641L52.8793 29.9104L52.6 20.0436L50.7001 20.0974Z" fill="white"/>
<path fill-rule="evenodd" clip-rule="evenodd" d="M59.6361 19.5557C57.118 19.627 55.4199 21.7988 55.4912 24.3184C55.5626 26.838 57.3808 28.9103 59.8989 28.8391C61.0581 28.8062 61.9925 28.3435 62.6673 27.5929L62.7045 28.9072C62.7701 30.5415 61.4944 31.925 59.8463 31.9909C59.8334 31.9913 59.827 31.9915 59.8141 31.9918C59.2087 32.009 58.5968 31.7953 58.1171 31.4688L57.2104 33.1371C59.5121 34.5284 62.5013 33.7958 63.8997 31.5105C64.3862 30.7075 64.6307 29.7831 64.6042 28.847L64.3458 19.7176L62.4459 19.7713L62.471 20.6561C61.7548 19.9449 60.7893 19.5359 59.6365 19.5685L59.6361 19.5557ZM57.3847 24.2648C57.3404 22.7005 58.5034 21.4357 59.8945 21.3963C61.2856 21.3569 62.512 22.5605 62.5561 24.1185C62.6004 25.6828 61.4372 26.9412 60.0525 26.9804C58.6679 27.0196 57.4291 25.8356 57.3847 24.2648Z" fill="white"/>
<path d="M71.217 21.0759C70.0841 21.1272 69.2022 22.0761 69.2405 23.2043L69.4171 29.4424L67.5173 29.4961L67.238 19.6294L69.1378 19.5756L69.1634 20.4796C69.7214 19.7002 70.617 19.2322 71.5771 19.2242C72.9102 19.1865 73.9527 19.8115 74.5673 20.8014C75.2016 19.7569 76.3174 19.1029 77.5407 19.0554C79.6981 18.9944 81.0996 20.6871 81.1605 22.8412L81.3378 29.1049L79.4509 29.1583L79.2741 22.9139C79.2486 21.7853 78.3144 20.8878 77.1804 20.9007C76.0475 20.952 75.1656 21.9009 75.2039 23.0291L75.3805 29.2671L73.4807 29.3209L73.3041 23.0829C73.2788 21.9607 72.351 21.0631 71.2168 21.0695L71.217 21.0759Z" fill="white"/>
<path fill-rule="evenodd" clip-rule="evenodd" d="M91.2177 20.0733C90.3162 19.1942 89.0974 18.7154 87.8355 18.7639C85.0083 18.8439 83.0725 21.2728 83.1531 24.1193C83.2337 26.9658 85.3037 29.2813 88.1309 29.2013C89.3934 29.1719 90.5834 28.6314 91.4336 27.7026L91.4654 28.8246L93.3588 28.771L93.0793 18.8978L91.1795 18.9516L91.2112 20.0735L91.2177 20.0733ZM85.0463 24.0593C84.9931 22.1808 86.3999 20.646 88.0937 20.5981C89.7745 20.5505 91.2787 22.0029 91.3319 23.8814C91.3851 25.7598 89.9782 27.2882 88.2844 27.3362C86.6035 27.3838 85.0995 25.9378 85.0463 24.0593Z" fill="white"/>
</svg>
