<svg width="114" height="23" viewBox="0 0 114 23" fill="none" xmlns="http://www.w3.org/2000/svg">
<g clip-path="url(#clip0_1137_1164)">
<path fill-rule="evenodd" clip-rule="evenodd" d="M30.3629 2.61827L21.266 21.7812L12.2192 22.0373L16.0285 14.0942L15.8476 14.0993C12.6448 18.5243 7.76401 21.5158 0.712917 22.3629L0.494385 14.6424C0.494385 14.6424 5.00927 14.2464 7.58852 11.3668L0.407421 11.57L0.178227 3.47281L8.24901 3.24436L8.43752 9.90421L8.61864 9.89833L11.7282 3.14588L17.8319 2.97311L18.0192 9.59073L18.2004 9.58531L21.4347 2.87098L30.3629 2.61827Z" fill="white"/>
<path d="M83.3519 17.9364L85.9511 17.8629L85.5274 2.8942L82.9282 2.96777L83.3519 17.9364Z" fill="white"/>
<path fill-rule="evenodd" clip-rule="evenodd" d="M69.0191 18.1894C69.5907 18.4091 70.1685 18.5105 70.7525 18.494C71.7173 18.4667 72.5738 18.2067 73.3222 17.7139C74.0705 17.2211 74.6424 16.5548 75.038 15.7151C75.4334 14.8689 75.616 13.9174 75.5861 12.8602C75.5561 11.803 75.3136 10.8635 74.8584 10.0415C74.4031 9.21944 73.785 8.59004 73.0039 8.15327C72.2228 7.71012 71.3435 7.50557 70.3661 7.53961C69.7441 7.55721 69.1509 7.69509 68.5865 7.95327C68.0219 8.21143 67.5557 8.56879 67.1874 9.02535C67.159 9.06012 67.1314 9.09521 67.1047 9.13061L66.9433 3.43006L64.3345 3.50391L64.7579 18.463L67.3477 18.3897L67.3029 16.9924C67.3723 17.0729 67.4461 17.1513 67.5245 17.2279C67.9491 17.6429 68.4473 17.9634 69.0191 18.1894ZM71.6166 15.6972C71.1987 15.9703 70.7168 16.1147 70.171 16.1301C69.6314 16.1454 69.1325 16.0256 68.6743 15.7709C68.2159 15.5098 67.8467 15.1474 67.5668 14.6837C67.2932 14.2199 67.148 13.6886 67.131 13.09C67.1077 12.4915 67.2195 11.953 67.4664 11.4744C67.7195 10.9892 68.0676 10.6097 68.5109 10.3359C68.954 10.0556 69.4486 9.91098 69.9947 9.90189C70.5404 9.88007 71.0296 9.99369 71.4622 10.2428C71.9011 10.4853 72.2415 10.8421 72.4836 11.3133C72.7317 11.7779 72.8645 12.3159 72.8818 12.9272C72.8991 13.5385 72.7969 14.0832 72.5755 14.5611C72.3603 15.0388 72.0407 15.4175 71.6166 15.6972Z" fill="white"/>
<path d="M34.2095 5.25488L37.1801 5.1708L40.113 14.832L42.6643 5.01557L45.1398 4.9455L48.4758 14.3998L50.7573 4.78649L53.4804 4.70941L49.8605 18.8843L47.2992 18.9568L43.9179 9.72416L41.3199 19.1261L38.7301 19.1994L34.2095 5.25488Z" fill="white"/>
<path fill-rule="evenodd" clip-rule="evenodd" d="M58.2655 18.8951C57.231 18.9307 56.2914 18.7278 55.4467 18.2865C54.6083 17.8387 53.9392 17.2043 53.4395 16.3836C52.9461 15.5626 52.6843 14.6172 52.654 13.5473C52.6246 12.5093 52.8393 11.5632 53.2979 10.7089C53.7565 9.85462 54.3918 9.18018 55.2035 8.68557C56.0154 8.19096 56.9291 7.92928 57.9447 7.90053C59.0872 7.86819 60.0942 8.09463 60.9655 8.57984C61.8432 9.06486 62.5079 9.76943 62.9597 10.6935C63.4176 11.6111 63.6033 12.6734 63.5168 13.8803L55.3612 14.1112C55.3975 14.5901 55.5291 15.023 55.756 15.4097C56.0094 15.836 56.3555 16.164 56.7938 16.3938C57.2323 16.6235 57.7182 16.7308 58.2514 16.7157C58.6574 16.6979 59.0331 16.6172 59.3785 16.4736C59.7236 16.3236 60.0134 16.1274 60.248 15.885C60.4888 15.6423 60.6558 15.3699 60.7489 15.0677L63.4721 14.9907C63.3277 15.7276 63.0161 16.3897 62.5372 16.9769C62.0582 17.5576 61.4486 18.0178 60.7087 18.3575C59.9686 18.6971 59.1542 18.8763 58.2655 18.8951ZM55.6541 11.4739C55.5095 11.7444 55.4123 12.0339 55.3623 12.3426L60.7684 12.1896C60.7182 11.8028 60.5889 11.4527 60.3804 11.1394C60.1414 10.7701 59.8221 10.4892 59.4228 10.2965C59.0233 10.0975 58.576 10.005 58.0809 10.019C57.5541 10.0339 57.0783 10.1685 56.6535 10.4227C56.2287 10.6769 55.8955 11.0273 55.6541 11.4739Z" fill="white"/>
<path d="M77.3577 7.57086C77.3336 6.7175 77.5058 5.9542 77.8743 5.28094C78.2425 4.60132 78.7705 4.06694 79.4583 3.67782C80.1522 3.28214 80.9687 3.06465 81.9078 3.02532L81.9735 5.34655C81.5357 5.36532 81.1639 5.46826 80.8579 5.65537C80.5581 5.83594 80.3303 6.09414 80.1746 6.42996C80.0313 6.73912 79.9593 7.09488 79.9586 7.49724L81.9756 7.44015L82.0381 9.64675L80.0195 9.70389L80.255 18.0241L77.6557 18.0976L77.4202 9.77746L75.7445 9.82489L75.682 7.61829L77.3577 7.57086Z" fill="white"/>
<path fill-rule="evenodd" clip-rule="evenodd" d="M92.5723 17.9045C91.5123 17.9345 90.5568 17.7288 89.7057 17.2877C88.8609 16.84 88.1887 16.2089 87.6892 15.3945C87.1959 14.5735 86.9342 13.6345 86.9043 12.5774C86.8742 11.5139 87.0822 10.5584 87.5283 9.71082C87.9806 8.85674 88.6159 8.18548 89.4342 7.69706C90.259 7.20846 91.2014 6.94916 92.2614 6.91915C93.3277 6.88897 94.2865 7.09446 95.1375 7.53563C95.9949 7.97662 96.6702 8.60758 97.1635 9.42854C97.6568 10.2495 97.9218 11.1948 97.9585 12.2645C97.982 13.3218 97.7707 14.2742 97.3246 15.1218C96.8848 15.9627 96.2494 16.6308 95.4185 17.126C94.5874 17.6147 93.6387 17.8743 92.5723 17.9045ZM92.5044 15.5068C93.063 15.491 93.5545 15.3496 93.979 15.0826C94.4032 14.8093 94.7261 14.4368 94.9478 13.9653C95.1694 13.4875 95.2716 12.946 95.2545 12.341C95.2372 11.7297 95.1044 11.1917 94.8561 10.7271C94.608 10.2625 94.2645 9.90893 93.8257 9.66641C93.3866 9.41753 92.8878 9.301 92.3292 9.31681C91.777 9.33244 91.2888 9.47691 90.8646 9.75023C90.4464 10.017 90.1266 10.3893 89.9052 10.8672C89.6836 11.3451 89.5847 11.8897 89.6084 12.5008C89.6255 13.1059 89.7581 13.6406 90.0063 14.1052C90.2607 14.5632 90.601 14.9169 91.0274 15.1662C91.4599 15.4089 91.9522 15.5224 92.5044 15.5068Z" fill="white"/>
<path d="M100.616 6.91221L97.7212 6.99414L101.152 17.4323L103.684 17.3606L105.554 10.5788L107.969 17.2393L110.464 17.1687L113.307 6.55297L110.69 6.62707L109.093 13.2297L106.938 6.73326L104.405 6.80495L102.635 13.557L100.616 6.91221Z" fill="white"/>
</g>
<defs>
<clipPath id="clip0_1137_1164">
<rect width="113" height="19" fill="white" transform="translate(0.174316 3.40039) rotate(-1.62134)"/>
</clipPath>
</defs>
</svg>
