<svg width="65" height="41" viewBox="0 0 65 41" fill="none" xmlns="http://www.w3.org/2000/svg">
<path d="M15.9348 11.9436L27.7914 11.608L27.8181 12.5504L17.0484 12.8552L17.2491 19.9479L27.3766 19.6612L27.4033 20.6036L17.2758 20.8902L17.4962 28.6773L28.3895 28.3689L28.4161 29.3113L16.436 29.6504L15.9348 11.9436ZM28.8536 11.578L30.1133 11.5423L35.9162 19.1713L41.4018 11.2228L48.8829 1.11178L36.6557 19.9694L43.4839 28.8848L42.1747 28.9219L35.9626 20.8081L30.1946 29.261L28.9102 29.2973L35.2725 20.0086L28.8536 11.578ZM43.4787 12.1071L43.452 11.1647L56.9636 10.7823L56.9903 11.7247L50.7656 11.9009L51.2401 28.6653L50.1532 28.696L49.6787 11.9316L43.4787 12.1071ZM1.10175 12.3635L2.46032 12.325L21.9877 39.8282L13.9536 29.7207L2.27592 13.6705L2.6898 30.0395L1.60295 30.0703L1.10175 12.3635ZM57.3206 27.2654C57.0985 27.2717 56.9271 27.1044 56.9208 26.882C56.9145 26.6597 57.0762 26.4829 57.2982 26.4766C57.5229 26.4703 57.6917 26.6377 57.698 26.86C57.7043 27.0824 57.5453 27.2591 57.3206 27.2654ZM58.3592 26.1976L58.9407 26.1811C58.9576 26.4959 59.1935 26.7011 59.5319 26.6916C59.9099 26.6809 60.1176 26.4472 60.1055 26.021L60.0291 23.3211L60.6213 23.3044L60.6978 26.0069C60.7195 26.7745 60.2879 27.2291 59.553 27.2499C58.8631 27.2694 58.3777 26.854 58.3592 26.1976ZM61.4748 26.075L62.0617 26.0584C62.1222 26.4196 62.4829 26.6398 62.9931 26.6254C63.4689 26.6119 63.8109 26.3559 63.8013 26.0171C63.7931 25.7259 63.5661 25.5575 63.0578 25.4527L62.5628 25.3475C61.8682 25.2055 61.5442 24.8809 61.5283 24.3198C61.5091 23.6395 62.0514 23.1712 62.8841 23.1476C63.6586 23.1257 64.2372 23.5623 64.2897 24.2045L63.7134 24.2208C63.648 23.8704 63.3351 23.6594 62.891 23.6719C62.4231 23.6852 62.1175 23.919 62.1273 24.2631C62.135 24.5357 62.3403 24.6862 62.8406 24.7886L63.2638 24.8799C64.0515 25.0404 64.383 25.3489 64.3992 25.9233C64.4199 26.6539 63.8672 27.1278 62.9631 27.1534C62.1172 27.1773 61.5365 26.7567 61.4748 26.075Z" fill="white"/>
</svg>
