<svg width="78" height="25" viewBox="0 0 78 25" fill="none" xmlns="http://www.w3.org/2000/svg">
<path d="M26.9634 12.7227C26.9343 10.9639 24.7041 9.33369 21.3101 8.35611C22.0323 4.90138 21.6405 2.16885 20.0998 1.31748C19.7446 1.11768 19.3318 1.02709 18.8826 1.03454L18.9026 2.24135C19.1515 2.23721 19.3526 2.2826 19.5219 2.37181C20.2648 2.7817 20.6109 4.38366 20.3961 6.45503C20.3451 6.96471 20.2566 7.50207 20.1466 8.05062C19.0815 7.80847 17.9202 7.62746 16.7004 7.51779C15.9533 6.52875 15.1805 5.63217 14.4043 4.84933C16.1412 3.18033 17.7823 2.25451 18.908 2.23583L18.8879 1.02904C17.3997 1.05374 15.4691 2.14675 13.5299 4.01939C11.5296 2.22295 9.56405 1.20542 8.07587 1.23012L8.0959 2.43691C9.21608 2.41832 10.8922 3.28368 12.6835 4.8833C11.939 5.69139 11.1964 6.60769 10.4932 7.6208C9.27235 7.77097 8.11761 7.99041 7.06137 8.27318C6.92787 7.73409 6.82719 7.21068 6.75386 6.70848C6.46531 4.64546 6.75242 3.03299 7.47598 2.59336C7.63663 2.49325 7.84695 2.44646 8.09599 2.44233L8.07596 1.23553C7.62133 1.24307 7.21164 1.34731 6.85795 1.55888C5.35178 2.46079 5.05624 5.19932 5.8978 8.61728C2.54904 9.71217 0.384898 11.4099 0.413994 13.1632C0.443181 14.9221 2.67337 16.5523 6.06737 17.5298C5.34519 20.9846 5.73696 23.7171 7.27767 24.5685C7.63286 24.7682 8.04567 24.8588 8.5003 24.8513C9.98847 24.8266 11.9191 23.7336 13.8584 21.861C15.8585 23.6575 17.8242 24.675 19.3124 24.6503C19.7669 24.6428 20.1766 24.5385 20.5304 24.3269C22.0364 23.4249 22.3321 20.6864 21.4904 17.2686C24.8285 16.1792 26.9925 14.4761 26.9634 12.7227ZM19.8577 9.23007C19.669 9.93154 19.432 10.6553 19.1625 11.3797C18.9335 10.9506 18.6936 10.5215 18.432 10.0927C18.1759 9.66396 17.9037 9.24626 17.6317 8.83937C18.402 8.94026 19.1458 9.06867 19.8577 9.23007ZM17.4747 15.0346C17.0647 15.7722 16.6434 16.4721 16.2049 17.1235C15.3996 17.2072 14.5832 17.2586 13.7606 17.2723C12.9434 17.2859 12.1256 17.2615 11.3237 17.2099C10.8638 16.5733 10.414 15.8934 9.97985 15.1752C9.55678 14.4731 9.17152 13.7595 8.81849 13.0401C9.14201 12.3093 9.50873 11.5778 9.90296 10.8622C10.3129 10.1247 10.7343 9.42477 11.1728 8.77333C11.978 8.6896 12.7944 8.63816 13.6171 8.62451C14.4342 8.61095 15.252 8.63526 16.054 8.68692C16.5138 9.32345 16.9637 10.0034 17.3978 10.7216C17.8208 11.4237 18.2061 12.1372 18.5591 12.8568C18.2302 13.5875 17.8689 14.3189 17.4747 15.0346ZM19.211 14.3021C19.5068 15.0027 19.7679 15.7173 19.9936 16.4435C19.2875 16.6284 18.5431 16.787 17.7712 16.9134C18.0294 16.4924 18.2874 16.0605 18.5292 15.6179C18.7709 15.1809 18.9963 14.7387 19.211 14.3021ZM13.8194 20.1674C13.3075 19.6561 12.7946 19.0854 12.2863 18.4606C12.7737 18.4742 13.2718 18.4821 13.7751 18.4738C14.2838 18.4653 14.7869 18.4462 15.2789 18.4109C14.8244 19.0223 14.3372 19.6086 13.8194 20.1674ZM9.74026 17.0467C8.96997 16.9458 8.22621 16.8174 7.51446 16.656C7.70302 15.9546 7.94012 15.2307 8.20952 14.5062C8.43864 14.9355 8.67852 15.3646 8.93995 15.7933C9.20149 16.222 9.4683 16.6398 9.74026 17.0467ZM13.5526 5.71874C14.0645 6.22989 14.5774 6.8006 15.0857 7.42549C14.5983 7.41193 14.1002 7.40396 13.5969 7.41231C13.0882 7.42075 12.5851 7.43992 12.0932 7.47515C12.5477 6.86381 13.0348 6.27748 13.5526 5.71874ZM9.60083 8.97264C9.34261 9.39374 9.08457 9.82565 8.84293 10.2681C8.6012 10.7052 8.37568 11.142 8.16094 11.5785C7.86513 10.878 7.60398 10.1634 7.37845 9.43715C8.08454 9.25763 8.82886 9.09912 9.60083 8.97264ZM4.81577 15.8293C2.88652 15.0439 1.62948 13.993 1.61537 13.1433C1.60128 12.2937 2.82267 11.1963 4.72489 10.3527C5.18697 10.1448 5.69273 9.95772 6.21488 9.78126C6.54094 10.8368 6.96512 11.934 7.48717 13.0568C7.00802 14.1906 6.62571 15.2958 6.34021 16.3562C5.80172 16.1972 5.28994 16.0217 4.81577 15.8293ZM7.85559 23.5142C7.1126 23.1043 6.76659 21.5024 6.98132 19.4309C7.03242 18.9213 7.12082 18.3839 7.23082 17.8353C8.2959 18.0775 9.45728 18.2586 10.677 18.3682C11.4242 19.3572 12.1969 20.2537 12.9732 21.0366C11.2362 22.7057 9.5951 23.6314 8.46947 23.6501C8.22591 23.6488 8.01951 23.6034 7.85559 23.5142ZM20.6236 19.1775C20.9121 21.2405 20.625 22.853 19.9015 23.2926C19.7408 23.3927 19.5305 23.4395 19.2814 23.4437C18.1613 23.4623 16.4851 22.5969 14.6939 20.9973C15.4383 20.1892 16.181 19.2729 16.8841 18.2597C18.105 18.1096 19.2597 17.8901 20.316 17.6074C20.4496 18.1519 20.5557 18.6752 20.6236 19.1775ZM22.6471 15.5334C22.185 15.7414 21.6793 15.9284 21.1571 16.1048C20.8311 15.0493 20.4069 13.9521 19.8848 12.8294C20.3641 11.6955 20.7463 10.5903 21.0318 9.52995C21.5704 9.68883 22.0821 9.86438 22.5617 10.0568C24.4909 10.842 25.748 11.893 25.7621 12.7426C25.7707 13.5924 24.5493 14.6898 22.6471 15.5334Z" fill="white"/>
<path d="M16.1562 12.9022C16.1789 14.2682 15.09 15.3938 13.7241 15.4164C12.3583 15.4391 11.2327 14.3503 11.21 12.9843C11.1873 11.6185 12.2762 10.4929 13.642 10.4702C15.008 10.4475 16.1336 11.5364 16.1562 12.9022Z" fill="white"/>
<path d="M39.4313 12.6726L36.4834 12.7215L36.5676 17.7984L34.9041 17.826L34.6958 5.27588L38.8504 5.20693C40.264 5.18348 41.3555 5.48748 42.1246 6.11853C42.8996 6.74904 43.2973 7.67953 43.3177 8.90911C43.3307 9.69082 43.1293 10.3751 42.7137 10.9629C42.3039 11.5501 41.725 11.9937 40.977 12.2933L44.0133 17.5713L44.015 17.6749L42.2393 17.7043L39.4313 12.6726ZM36.4609 11.3682L39.0037 11.326C39.8255 11.3124 40.4741 11.0888 40.9498 10.6556C41.4311 10.2224 41.6659 9.64939 41.6541 8.93672C41.6412 8.16113 41.3986 7.5703 40.9263 7.16423C40.4597 6.75807 39.7897 6.55939 38.9161 6.5682L36.382 6.61025L36.4609 11.3682ZM49.4139 17.7579C48.1495 17.7789 47.114 17.3822 46.3073 16.5677C45.5004 15.7476 45.0855 14.6421 45.0624 13.2518L45.0575 12.9586C45.0422 12.0335 45.2038 11.2061 45.5423 10.4763C45.8865 9.74019 46.3712 9.16309 46.9965 8.74492C47.6275 8.32054 48.3136 8.10198 49.0549 8.08968C50.2675 8.06956 51.2167 8.45329 51.902 9.24089C52.5877 10.0285 52.9427 11.1664 52.9674 12.6547L52.9784 13.3184L46.6603 13.4232C46.6986 14.3427 46.9781 15.0824 47.499 15.6428C48.0255 16.197 48.6853 16.4679 49.4783 16.4548C50.0416 16.4454 50.5164 16.3226 50.9032 16.0863C51.2905 15.85 51.6271 15.5397 51.914 15.1556L52.9006 15.898C52.1388 17.1117 50.9768 17.732 49.4139 17.7579ZM49.0767 9.40011C48.4331 9.41079 47.8968 9.65526 47.4679 10.1335C47.0389 10.6066 46.7797 11.2661 46.6903 12.1124L51.3622 12.0349L51.3602 11.9143C51.3009 11.1049 51.072 10.482 50.674 10.0458C50.2755 9.60442 49.7431 9.38905 49.0767 9.40011ZM60.6595 17.3986C60.5642 17.2162 60.4841 16.8902 60.419 16.4197C59.6903 17.2019 58.8118 17.6019 57.7833 17.619C56.8639 17.6343 56.1041 17.3881 55.5035 16.8806C54.9088 16.3673 54.6047 15.7115 54.5914 14.9127C54.5753 13.9418 54.9307 13.1828 55.6572 12.6362C56.3893 12.0834 57.4253 11.7961 58.7641 11.7739L60.3157 11.7482L60.3035 11.0158C60.2943 10.4583 60.12 10.0184 59.7816 9.69667C59.4427 9.36881 58.9484 9.2105 58.2991 9.22127C57.7302 9.23071 57.2558 9.38195 56.8756 9.67585C56.4954 9.96932 56.3085 10.3203 56.3153 10.7284L54.7121 10.755C54.7044 10.2897 54.8608 9.83865 55.1809 9.40195C55.5071 8.9599 55.9497 8.60771 56.5087 8.34537C57.0734 8.08337 57.6944 7.94631 58.3726 7.93506C59.4475 7.91722 60.2935 8.17328 60.9116 8.70369C61.5296 9.22797 61.8578 9.96119 61.8966 10.9029L61.9678 15.1955C61.982 16.0519 62.1025 16.7309 62.3294 17.2328L62.3317 17.3709L60.6595 17.3986ZM57.9931 16.2274C58.493 16.2191 58.9649 16.0819 59.409 15.8158C59.8525 15.5497 60.1716 15.2083 60.3662 14.7911L60.3344 12.8777L59.0843 12.8984C57.1307 12.9309 56.1632 13.5186 56.1821 14.6621C56.1904 15.162 56.3638 15.5503 56.7015 15.8262C57.0395 16.102 57.4701 16.2361 57.9931 16.2274ZM68.2258 16.1437C68.7947 16.1342 69.2891 15.9534 69.7085 15.6016C70.128 15.2498 70.3563 14.815 70.3936 14.2969L71.9024 14.2719C71.8825 14.8068 71.7069 15.3184 71.3759 15.8069C71.0448 16.2953 70.5972 16.6878 70.0331 16.9843C69.4746 17.2812 68.8797 17.4349 68.2474 17.4454C66.9776 17.4664 65.9591 17.0607 65.1922 16.2286C64.4313 15.3902 64.0384 14.2359 64.014 12.7646L64.0096 12.4976C63.9945 11.5897 64.1476 10.7794 64.4693 10.0673C64.7909 9.3548 65.2586 8.79808 65.873 8.39714C66.4926 7.99568 67.2279 7.78811 68.0782 7.774C69.1242 7.75664 69.9972 8.05554 70.6971 8.67068C71.4027 9.2853 71.7867 10.0923 71.8497 11.0913L70.3409 11.1163C70.285 10.5137 70.0469 10.0233 69.6267 9.6452C69.2126 9.26132 68.7033 9.07441 68.0999 9.08442C67.2898 9.09787 66.6654 9.40106 66.2269 9.99489C65.7943 10.5825 65.5867 11.4282 65.605 12.5315L65.6101 12.833C65.6279 13.9075 65.8631 14.7314 66.315 15.3043C66.7672 15.8777 67.4043 16.1573 68.2258 16.1437ZM75.7151 5.56111L75.7526 7.81929L77.4939 7.79039L77.5143 9.02304L75.7731 9.05193L75.869 14.8354C75.8752 15.209 75.9577 15.4891 76.116 15.6762C76.2741 15.8576 76.54 15.9454 76.9136 15.9392C77.0971 15.9362 77.3496 15.8974 77.67 15.8231L77.6915 17.116C77.2739 17.2379 76.8672 17.3023 76.4704 17.3089C75.7582 17.3207 75.2172 17.1138 74.8478 16.689C74.4788 16.2641 74.2878 15.655 74.2746 14.8619L74.1786 9.07839L72.4802 9.10658L72.4597 7.87393L74.1582 7.84575L74.1207 5.58757L75.7151 5.56111Z" fill="white"/>
</svg>
