<svg width="86" height="43" viewBox="0 0 86 43" fill="none" xmlns="http://www.w3.org/2000/svg">
<path fill-rule="evenodd" clip-rule="evenodd" d="M75.4708 20.8378C75.3438 16.3524 73.0189 12.8761 68.7667 12.9964C64.4967 13.1173 62.0133 16.7297 62.1392 21.18C62.2885 26.4539 65.414 29.0308 69.7917 28.9068C71.9267 28.8464 73.5281 28.3276 74.7293 27.6273L74.6301 24.1231C73.4269 24.7533 72.0379 25.1609 70.2617 25.2112C68.5213 25.2604 66.9615 24.7084 66.7056 22.6465L75.479 22.3981C75.4726 22.1704 75.4827 21.2583 75.4708 20.8378ZM66.5606 19.4241C66.5045 17.4442 67.7192 16.5857 68.8495 16.5537C69.9439 16.5227 71.1334 17.3132 71.1895 19.2931L66.5606 19.4241Z" fill="white"/>
<path fill-rule="evenodd" clip-rule="evenodd" d="M54.9889 13.3866C53.2306 13.4364 52.1231 14.2744 51.511 14.8528L51.2471 13.7731L47.2999 13.8848L47.8782 34.3144L52.3373 33.2588L52.2149 28.2999C52.8737 28.7371 53.8429 29.3585 55.4218 29.3138C58.6333 29.2229 61.4864 26.6171 61.3292 21.0629C61.1674 15.9823 58.1287 13.2978 54.9889 13.3866ZM54.2541 25.4891C53.1956 25.5191 52.5572 25.1689 52.1137 24.7256L51.9118 18.2257C52.3639 17.7044 52.9998 17.3357 54.0225 17.3068C55.6552 17.2606 56.8361 19.0157 56.9011 21.311C56.9675 23.6588 55.9047 25.4424 54.2541 25.4891Z" fill="white"/>
<path fill-rule="evenodd" clip-rule="evenodd" d="M41.0874 12.7451L45.564 11.6715L45.4633 8.11472L40.9862 9.1708L41.0874 12.7451Z" fill="white"/>
<path d="M45.6273 13.9497L41.124 14.0771L41.558 29.4081L46.0613 29.2806L45.6273 13.9497Z" fill="white"/>
<path fill-rule="evenodd" clip-rule="evenodd" d="M36.3361 15.5093L36.0123 14.2208L32.137 14.3305L32.5709 29.6615L37.0563 29.5345L36.7622 19.1445C37.7826 17.7654 39.5837 17.9599 40.1453 18.1369L40.0312 14.1071C39.4512 13.9131 37.3411 13.587 36.3361 15.5093Z" fill="white"/>
<path fill-rule="evenodd" clip-rule="evenodd" d="M27.2228 10.6646L22.8709 11.6997L23.2502 25.7345C23.3236 28.3277 25.3692 30.1811 28.0245 30.1059C29.4957 30.0643 30.5648 29.771 31.1479 29.4389L31.0472 25.8821C30.4795 26.1261 27.6676 27.0123 27.5942 24.4192L27.4181 18.1992L30.827 18.1027L30.7214 14.3707L27.3125 14.4672L27.2228 10.6646Z" fill="white"/>
<path fill-rule="evenodd" clip-rule="evenodd" d="M15.325 19.2613C15.3056 18.578 15.8723 18.2989 16.8232 18.272C18.1868 18.2334 19.9206 18.5877 21.3045 19.2674L21.1879 15.15C19.6824 14.6139 18.2048 14.4278 16.7156 14.47C13.0735 14.573 10.7039 16.4988 10.7917 19.6001C10.9286 24.4359 17.7246 23.472 17.7836 25.557C17.8064 26.363 17.0962 26.6461 16.0914 26.6745C14.6023 26.7167 12.6836 26.1748 11.1537 25.4115L11.2718 29.5815C12.9602 30.2351 14.6551 30.4852 16.1981 30.4416C19.9299 30.3359 22.4445 28.4586 22.3557 25.3224C22.19 20.1016 15.3805 21.2237 15.325 19.2613Z" fill="white"/>
</svg>
