<svg width="142" height="35" viewBox="0 0 142 35" fill="none" xmlns="http://www.w3.org/2000/svg">
<g clip-path="url(#clip0_1137_1173)">
<path d="M82.1691 13.8571L76.6603 14.0131L76.6764 14.5834C78.3995 14.5346 78.6868 14.8872 78.7471 17.0197L78.8559 20.8643C78.9163 22.9966 78.6506 23.3949 76.9272 23.4437C75.5991 23.301 74.6868 22.6354 73.4184 21.3487L71.9604 19.8873C73.8589 19.5025 74.8411 18.3027 74.8037 16.981C74.757 15.3295 73.2752 14.1089 70.5667 14.1856L65.1504 14.3389L65.1665 14.9092C66.8897 14.8604 67.1769 15.213 67.2373 17.3455L67.3461 21.19C67.4064 23.3224 67.1405 23.7207 65.4173 23.7695L65.4335 24.34L71.5576 24.1667L71.5414 23.5961C69.8183 23.6449 69.5302 23.2622 69.4699 21.1299L69.4393 20.049L69.9622 20.0342L73.4966 24.1118L82.4522 23.8583C86.8529 23.7338 88.6965 21.3975 88.6191 18.664C88.5418 15.931 86.5701 13.7326 82.1691 13.8571ZM69.4131 19.1172L69.3001 15.1233L70.5617 15.0875C71.9463 15.0484 72.5884 15.9619 72.619 17.0431C72.6488 18.0945 72.0594 19.0426 70.6747 19.0818L69.4131 19.1172ZM82.5184 22.9247L82.3028 22.9308C81.1951 22.9622 81.0335 22.6964 80.9944 21.3148L80.81 14.7975C80.81 14.7975 82.1641 14.7591 82.2872 14.7557C85.4877 14.6651 86.1367 16.9308 86.1869 18.703C86.2387 20.5348 85.7187 22.8341 82.5184 22.9247Z" fill="white"/>
<path d="M48.1781 20.8309L50.1282 14.6434C50.6938 12.8541 50.4023 12.3516 48.4327 12.4073L48.4157 11.8064L54.2013 11.6426L54.2183 12.2436C52.2796 12.2984 51.8308 12.7619 51.1234 14.9762L47.9054 25.3471L47.5056 25.3584L44.1001 16.0465L41.1658 25.5378L40.7657 25.5491L37.059 15.3743C36.2584 13.2027 35.7532 12.7662 33.9682 12.8167L33.9512 12.2158L40.7833 12.0224L40.8003 12.6234C38.9844 12.6748 38.5036 13.109 39.2029 14.9527L41.4382 21.0216L44.2915 11.9231L44.8764 11.9066L48.1781 20.8309Z" fill="white"/>
<path d="M58.759 24.9187C55.3739 25.0146 52.5352 22.6605 52.451 19.6867C52.3677 16.7436 55.0689 14.2321 58.4538 14.1363C61.8391 14.0405 64.6776 16.3951 64.7609 19.3383C64.8451 22.312 62.1443 24.8229 58.759 24.9187ZM58.4801 15.0681C55.6491 15.1482 54.7346 17.6685 54.7899 19.6208C54.846 21.6033 55.9008 24.0381 58.7318 23.9579C61.5941 23.8769 62.5092 21.3864 62.4531 19.4038C62.3979 17.4516 61.3425 14.987 58.4801 15.0681Z" fill="white"/>
<path d="M96.3458 22.864L96.3628 23.4647L89.3154 23.6642L89.2984 23.0635C91.3605 23.0052 91.7153 22.4843 91.6303 19.4805L91.4943 14.6754C91.4093 11.6716 91.0264 11.2017 88.9643 11.2601L88.9473 10.6592L95.3176 10.4789C98.4873 10.3891 100.287 11.9313 100.347 14.0641C100.406 16.1365 98.6973 17.8078 95.5276 17.8975L93.7733 17.9472L93.815 19.4184C93.9 22.4225 94.2837 22.9224 96.3458 22.864ZM95.3482 11.5601L93.5939 11.6097L93.7419 16.8359L95.4961 16.7862C97.2197 16.7375 97.9866 15.5436 97.9466 14.1321C97.9058 12.6905 97.0718 11.5113 95.3482 11.5601Z" fill="white"/>
<path d="M121.671 19.923L121.532 20.4678C121.283 21.4668 120.954 21.8368 118.769 21.8987L118.338 21.9109C116.738 21.9562 116.451 21.6036 116.391 19.4713L116.352 18.0899C118.752 18.0219 118.943 18.2266 118.987 19.7886L119.572 19.7721L119.445 15.2968L118.861 15.3133C118.905 16.8751 118.726 17.0905 116.325 17.1584L116.23 13.7949L117.922 13.747C120.108 13.6852 120.456 14.036 120.761 15.0193L120.932 15.5853L121.424 15.5713L121.129 12.7544L112.081 13.0105L112.097 13.5809C113.82 13.5321 114.108 13.8846 114.168 16.0172L114.277 19.8617C114.332 21.8124 114.11 22.3105 112.754 22.419C111.457 22.2631 110.551 21.6008 109.301 20.3331L107.843 18.8717C109.741 18.4868 110.724 17.2871 110.687 15.9654C110.64 14.3139 109.158 13.0933 106.45 13.1699L101.033 13.3232L101.049 13.8936C102.772 13.8448 103.06 14.1973 103.12 16.3299L103.229 20.1744C103.289 22.3067 103.024 22.7051 101.3 22.7538L101.316 23.3244L107.441 23.1511L107.424 22.5805C105.701 22.6293 105.413 22.2466 105.353 20.1143L105.322 19.0334L105.845 19.0186L109.379 23.0962L122.028 22.7382L122.133 19.9102L121.671 19.923ZM105.295 18.1016L105.182 14.1076L106.444 14.0719C107.829 14.0327 108.471 14.9463 108.502 16.0275C108.531 17.0788 107.942 18.027 106.557 18.0662L105.295 18.1016Z" fill="white"/>
<path d="M128.01 22.9594C126.779 22.9943 125.683 22.3942 125.211 22.0165C125.061 22.1714 124.797 22.6297 124.748 23.0517L124.163 23.0683L124.045 18.9241L124.661 18.9067C124.963 20.8817 126.412 22.0129 128.228 21.9615C129.212 21.9337 129.997 21.3705 129.972 20.4697C129.95 19.6889 129.225 19.108 127.947 18.5732L126.17 17.812C124.923 17.2758 123.971 16.3107 123.934 14.9895C123.893 13.5479 125.243 12.2775 127.151 12.2235C128.167 12.1948 129.039 12.5308 129.574 12.9363C129.724 12.8118 129.869 12.4769 129.951 12.1136L130.536 12.0971L130.636 15.6414L129.99 15.6597C129.734 14.2541 128.901 13.1055 127.27 13.1516C126.409 13.176 125.622 13.6792 125.643 14.4304C125.665 15.2111 126.323 15.6131 127.819 16.2322L129.535 16.9951C131.032 17.644 131.647 18.7393 131.673 19.6401C131.727 21.5319 130.071 22.901 128.01 22.9594Z" fill="white"/>
<path d="M137.482 22.6899C136.251 22.7247 135.156 22.1247 134.684 21.747C134.534 21.9019 134.27 22.3601 134.22 22.7822L133.636 22.7988L133.518 18.6545L134.134 18.6371C134.436 20.6122 135.885 21.7434 137.701 21.692C138.685 21.6641 139.47 21.101 139.445 20.2001C139.423 19.4194 138.698 18.8385 137.42 18.3036L135.643 17.5425C134.395 17.0062 133.444 16.0412 133.407 14.72C133.366 13.2784 134.716 12.008 136.624 11.954C137.64 11.9252 138.511 12.2613 139.047 12.6668C139.197 12.5423 139.342 12.2074 139.423 11.8441L140.008 11.8276L140.109 15.3719L139.463 15.3902C139.207 13.9845 138.374 12.8359 136.743 12.8821C135.881 12.9065 135.094 13.4097 135.116 14.1608C135.138 14.9416 135.796 15.3436 137.292 15.9627L139.007 16.7256C140.504 17.3745 141.12 18.4697 141.146 19.3706C141.199 21.2624 139.544 22.6315 137.482 22.6899Z" fill="white"/>
<path d="M3.35428 19.3859C3.5032 24.6469 6.76482 29.1049 11.3688 31.1308L4.38033 13.9432C3.67142 15.6176 3.29974 17.4589 3.35428 19.3859Z" fill="white"/>
<path d="M26.1478 18.0702C26.1014 16.4275 25.4645 15.3071 24.9209 14.4363C24.1995 13.361 23.5262 12.4521 23.4952 11.3573C23.4606 10.1354 24.378 8.97121 25.7155 8.93335C25.7758 8.93164 25.8333 8.93735 25.8922 8.93898C23.4078 6.84112 20.1421 5.60976 16.5963 5.71013C11.8382 5.84481 7.71952 8.34573 5.38637 12.0232C5.70618 12.0235 6.0075 12.0216 6.26329 12.0143C7.68787 11.974 9.88824 11.7429 9.88824 11.7429C10.6212 11.6799 10.7376 12.7298 10.0066 12.8353C10.0066 12.8353 9.27115 12.9409 8.45134 13.0061L13.8186 27.2628L16.5522 18.4547L14.2696 12.8409C13.535 12.8197 12.8378 12.7546 12.8378 12.7546C12.1027 12.7334 12.1578 11.6359 12.8929 11.6574C12.8929 11.6574 15.1469 11.7624 16.4851 11.7245C17.9095 11.6842 20.1101 11.4531 20.1101 11.4531C20.8436 11.39 20.9597 12.44 20.2284 12.5455C20.2284 12.5455 19.4915 12.6511 18.6732 12.7163L23.9995 26.865L25.2326 22.3963C25.7694 20.5412 26.1801 19.2081 26.1478 18.0702Z" fill="white"/>
<path d="M17.2407 20.1578L13.4823 31.8616C14.7123 32.1771 16.0081 32.3321 17.3451 32.2942C18.9311 32.2493 20.4445 31.9387 21.8465 31.4128C21.8084 31.3569 21.7735 31.2974 21.7444 31.2324L17.2407 20.1578Z" fill="white"/>
<path d="M28.7466 12.2862C28.8172 12.7079 28.8632 13.1615 28.8771 13.6503C28.9153 14.9991 28.7 16.5226 27.9762 18.4405L24.1483 30.2966C28.1321 27.8778 30.7344 23.5196 30.5956 18.6162C30.5304 16.3053 29.8641 14.1494 28.7466 12.2862Z" fill="white"/>
<path d="M16.5346 3.50765C7.78057 3.75543 0.854933 10.9073 1.09675 19.4504C1.33859 27.9946 8.65769 34.743 17.4117 34.4952C26.1654 34.2475 33.0921 27.0958 32.8503 18.5517C32.6082 10.0085 25.2883 3.25987 16.5346 3.50765ZM17.3916 33.7851C9.03901 34.0215 2.05546 27.5817 1.82472 19.4298C1.59399 11.2785 8.20185 4.45451 16.5547 4.21808C24.907 3.98166 31.89 10.4209 32.1208 18.5723C32.3515 26.7242 25.7439 33.5486 17.3916 33.7851Z" fill="white"/>
</g>
<defs>
<clipPath id="clip0_1137_1173">
<rect width="140" height="31" fill="white" transform="translate(0.658203 3.95703) rotate(-1.62134)"/>
</clipPath>
</defs>
</svg>
