<svg width="37" height="50" viewBox="0 0 37 50" fill="none" xmlns="http://www.w3.org/2000/svg">
<g clip-path="url(#clip0_1137_1212)">
<path d="M24.7149 7.9723L34.1746 7.70454L35.5593 9.05051L36.4212 39.4999L35.1148 40.922L22.2238 41.2869L22.847 40.2304L34.6683 39.8958L35.3999 39.0994L34.5623 9.50814L33.7868 8.75439L25.6324 8.9852L24.815 14.1265L23.7856 14.1557L24.5612 8.96704L24.7216 7.97211L24.7149 7.9723ZM2.82002 41.8361L1.43523 40.4901L0.573356 10.0408L1.87979 8.61865L15.2687 8.23967L14.6252 9.29676L2.32632 9.64489L1.59471 10.4413L2.4323 40.0325L3.20778 40.7863L12.95 40.5105L12.8179 41.5531L2.82002 41.8361ZM4.74051 38.3188L10.4594 38.157L10.2869 39.2007L4.09708 39.3759L3.75088 39.0394L3.57459 32.8112L4.64257 34.8587L4.74051 38.3188ZM27.616 37.6713L28.6546 38.6808L23.6085 38.8236L24.2519 37.7666L27.616 37.6713Z" fill="#B7BBBD"/>
<path d="M16.3695 28.9855L7.1722 29.2458L5.99423 27.1183L20.8028 3.15121L23.2677 4.12032L20.6759 20.5525L29.8126 20.2939L31.0034 22.4003L16.8677 46.3483L14.3778 45.4492L16.3695 28.9855ZM4.36685 13.3957C4.09919 13.4033 3.8394 13.3012 3.64462 13.1119C3.44985 12.9226 3.33605 12.6616 3.32826 12.3863C3.32046 12.111 3.41932 11.8439 3.60307 11.6439C3.78682 11.4439 4.04043 11.3272 4.30809 11.3196C4.57575 11.3121 4.83554 11.4142 5.03031 11.6035C5.22509 11.7928 5.33889 12.0538 5.34668 12.3291C5.35447 12.6044 5.25562 12.8715 5.07186 13.0715C4.88811 13.2715 4.63451 13.3882 4.36685 13.3957ZM7.05808 13.3196C6.79042 13.3271 6.53063 13.225 6.33585 13.0357C6.14108 12.8464 6.02728 12.5854 6.01949 12.3101C6.01169 12.0348 6.11055 11.7677 6.2943 11.5677C6.47805 11.3677 6.73166 11.251 6.99932 11.2435C7.26698 11.2359 7.52677 11.338 7.72154 11.5273C7.91632 11.7166 8.03012 11.9776 8.03791 12.2529C8.0457 12.5283 7.94685 12.7953 7.76309 12.9953C7.57934 13.1954 7.32574 13.312 7.05808 13.3196ZM9.74931 13.2434C9.48165 13.251 9.22186 13.1489 9.02708 12.9595C8.83231 12.7702 8.71851 12.5092 8.71072 12.2339C8.70292 11.9586 8.80178 11.6916 8.98553 11.4915C9.16929 11.2915 9.42289 11.1749 9.69055 11.1673C9.95821 11.1597 10.218 11.2618 10.4128 11.4511C10.6075 11.6404 10.7213 11.9015 10.7291 12.1768C10.7369 12.4521 10.6381 12.7191 10.4543 12.9191C10.2706 13.1192 10.017 13.2358 9.74931 13.2434Z" fill="url(#paint0_linear_1137_1212)"/>
</g>
<defs>
<linearGradient id="paint0_linear_1137_1212" x1="1683.24" y1="-107.965" x2="-589.201" y2="1667.51" gradientUnits="userSpaceOnUse">
<stop stop-color="#FBB743"/>
<stop offset="1" stop-color="#EA6B00"/>
</linearGradient>
<clipPath id="clip0_1137_1212">
<rect width="35" height="48" fill="white" transform="translate(0.323242 1.26416) rotate(-1.62134)"/>
</clipPath>
</defs>
</svg>
