<svg width="90" height="32" viewBox="0 0 90 32" fill="none" xmlns="http://www.w3.org/2000/svg">
<path d="M82.7593 9.52245L77.8694 8.53221L76.9921 8.20976L54.7022 9.01432L55.0067 19.7713L83.0294 19.065L82.7593 9.52245Z" fill="white"/>
<path d="M73.89 18.2816C74.0191 17.9082 74.057 17.5093 74.0007 17.1182C73.9443 16.7272 73.7952 16.3552 73.5659 16.0335C73.3322 15.7689 73.0486 15.553 72.7314 15.3981C72.4141 15.2432 72.0695 15.1524 71.7171 15.1308L56.6177 15.3846C56.5309 15.387 56.4417 15.3027 56.355 15.3052C56.3343 15.2906 56.3174 15.2714 56.3054 15.2492C56.2935 15.2269 56.2869 15.2021 56.2862 15.1769C56.2855 15.1516 56.2907 15.1266 56.3013 15.1037C56.312 15.0808 56.3278 15.0607 56.3476 15.0449C56.4294 14.869 56.5137 14.7798 56.6872 14.7749L71.8636 14.1716C72.8244 14.0374 73.732 13.6496 74.4932 13.0483C75.2544 12.4469 75.8417 11.6535 76.1946 10.7499L76.9982 8.46985C76.9958 8.3831 77.0801 8.29389 76.9908 8.2096C76.4598 6.12222 75.2618 4.26527 73.5789 2.92092C71.8961 1.57657 69.8204 0.818309 67.6673 0.761363C65.5142 0.704416 63.4013 1.3519 61.6498 2.60541C59.8982 3.85893 58.6038 5.64996 57.9631 7.70635C57.0382 7.08453 55.9237 6.80867 54.8155 6.92724C53.7995 7.06974 52.8621 7.5536 52.1575 8.29931C51.4528 9.04502 51.0228 10.0082 50.938 11.0307C50.895 11.5541 50.9392 12.0809 51.0689 12.5898C49.421 12.682 47.8742 13.4136 46.7574 14.6288C45.6406 15.8441 45.042 17.4471 45.0889 19.0969C45.0837 19.4178 45.122 19.738 45.2027 20.0487C45.2086 20.1163 45.2391 20.1794 45.2884 20.226C45.3377 20.2726 45.4024 20.2995 45.4703 20.3015L73.3171 19.5133C73.4906 19.5084 73.6616 19.4168 73.6567 19.2433L73.89 18.2816Z" fill="#F48120"/>
<path d="M78.3854 8.43101L77.9516 8.44328C77.8649 8.44574 77.7806 8.53494 77.6963 8.62415L77.148 10.7233C77.0189 11.0968 76.9809 11.4957 77.0373 11.8867C77.0937 12.2778 77.2427 12.6497 77.4721 12.9715C77.7058 13.2361 77.9893 13.452 78.3066 13.6069C78.6238 13.7618 78.9685 13.8526 79.3208 13.8742L82.5355 13.9568C82.6223 13.9544 82.7115 14.0387 82.7982 14.0362C82.8188 14.0508 82.8358 14.07 82.8477 14.0922C82.8597 14.1145 82.8662 14.1392 82.867 14.1645C82.8677 14.1897 82.8625 14.2148 82.8518 14.2377C82.8412 14.2606 82.8253 14.2807 82.8056 14.2965C82.7237 14.4724 82.6394 14.5616 82.4659 14.5665L79.1743 14.8333C78.2136 14.9676 77.3059 15.3553 76.5447 15.9567C75.7835 16.5581 75.1963 17.3514 74.8434 18.2551L74.692 19.0407C74.6077 19.1299 74.6994 19.301 74.8729 19.2961L86.3239 18.9719C86.3594 18.976 86.3953 18.9717 86.4289 18.9595C86.4624 18.9472 86.4927 18.9273 86.5172 18.9014C86.5418 18.8754 86.5599 18.8441 86.5703 18.8099C86.5806 18.7757 86.5828 18.7395 86.5768 18.7043C86.7625 17.9635 86.8576 17.2028 86.8599 16.439C86.7844 14.2579 85.8526 12.1944 84.2664 10.6955C82.6802 9.19659 80.5672 8.38301 78.3854 8.43101Z" fill="#FAAD3F"/>
<path d="M88.1961 23.78C88.0417 23.7844 87.8895 23.7429 87.7586 23.6607C87.6278 23.5786 87.5243 23.4595 87.4612 23.3185C87.398 23.1775 87.3781 23.021 87.404 22.8687C87.4298 22.7164 87.5002 22.5751 87.6063 22.4628C87.7124 22.3506 87.8494 22.2723 88 22.2379C88.1506 22.2034 88.308 22.2145 88.4524 22.2695C88.5967 22.3246 88.7215 22.4212 88.8109 22.5472C88.9003 22.6731 88.9504 22.8228 88.9548 22.9772C88.9581 23.0798 88.9411 23.1821 88.9047 23.2781C88.8683 23.3742 88.8132 23.462 88.7427 23.5367C88.6722 23.6113 88.5876 23.6712 88.4938 23.713C88.3999 23.7548 88.2988 23.7776 88.1961 23.78ZM88.1568 22.392C88.0367 22.3954 87.9203 22.4344 87.8224 22.5039C87.7244 22.5735 87.6492 22.6705 87.6064 22.7828C87.5636 22.8951 87.555 23.0175 87.5818 23.1346C87.6086 23.2518 87.6695 23.3583 87.7568 23.4408C87.8441 23.5234 87.954 23.5781 88.0724 23.5982C88.1909 23.6183 88.3126 23.6028 88.4223 23.5537C88.5319 23.5046 88.6246 23.4241 88.6885 23.3224C88.7524 23.2206 88.7847 23.1022 88.7813 22.9821C88.781 22.9018 88.7643 22.8223 88.7324 22.7486C88.7005 22.6749 88.6539 22.6084 88.5955 22.5533C88.5371 22.4981 88.4681 22.4554 88.3927 22.4276C88.3173 22.3999 88.2371 22.3878 88.1568 22.392ZM88.5333 23.4232L88.3598 23.4281L88.1789 23.1728L88.0054 23.1777L88.0128 23.438L87.8393 23.4429L87.8172 22.6621L88.2509 22.6498C88.2862 22.6438 88.3223 22.646 88.3565 22.6564C88.3907 22.6667 88.422 22.6848 88.448 22.7094C88.4739 22.7339 88.4938 22.7642 88.5061 22.7977C88.5183 22.8313 88.5226 22.8672 88.5186 22.9027C88.521 22.9895 88.4367 23.0787 88.3524 23.1679L88.5333 23.4232ZM88.2608 22.9968C88.3475 22.9944 88.3475 22.9944 88.3451 22.9076C88.345 22.8962 88.3426 22.8848 88.338 22.8743C88.3334 22.8638 88.3268 22.8543 88.3184 22.8465C88.3101 22.8386 88.3003 22.8325 88.2895 22.8285C88.2788 22.8245 88.2673 22.8228 88.2559 22.8233L87.9956 22.8307L88.003 23.091L88.2632 23.0836L88.2608 22.9968ZM10.4237 24.4187L12.3322 24.3646L12.4796 29.5697L15.7761 29.4763L15.8227 31.1246L10.6177 31.2719L10.4237 24.4187ZM17.7198 27.5981C17.7062 27.1162 17.7905 26.6366 17.9677 26.1883C18.1448 25.74 18.4111 25.3323 18.7505 24.9899C19.0898 24.6475 19.4951 24.3775 19.9418 24.1963C20.3885 24.0151 20.8674 23.9265 21.3494 23.9358C21.8256 23.9008 22.3039 23.964 22.7548 24.1213C23.2056 24.2787 23.6193 24.527 23.9703 24.8507C24.3213 25.1745 24.6021 25.5669 24.7953 26.0035C24.9885 26.4402 25.09 26.9119 25.0935 27.3894C25.1071 27.8713 25.0228 28.3509 24.8457 28.7992C24.6685 29.2475 24.4022 29.6552 24.0628 29.9976C23.7235 30.34 23.3182 30.61 22.8715 30.7912C22.4248 30.9724 21.9459 31.061 21.464 31.0517C20.9894 31.0793 20.5141 31.011 20.0665 30.8509C19.6189 30.6908 19.2081 30.4421 18.8587 30.1198C18.5092 29.7975 18.2283 29.4081 18.0326 28.9749C17.837 28.5416 17.7306 28.0734 17.7198 27.5981ZM23.185 27.4434C23.1952 27.2025 23.1565 26.9619 23.0711 26.7364C22.9857 26.5108 22.8554 26.3049 22.6882 26.1311C22.521 25.9573 22.3203 25.8192 22.0982 25.7252C21.8761 25.6311 21.6372 25.5831 21.396 25.584C20.9289 25.6201 20.4935 25.8345 20.1801 26.1828C19.8667 26.5311 19.6993 26.9865 19.7126 27.4549C19.7258 27.9232 19.9187 28.3685 20.2513 28.6985C20.5839 29.0285 21.0307 29.2179 21.4991 29.2275C22.5451 29.3716 23.2145 28.4844 23.185 27.4434ZM27.4481 27.7569L27.34 23.9398L29.2485 23.8858L29.3566 27.7028C29.3836 28.6571 29.9188 29.1629 30.6996 29.1408C30.8823 29.1507 31.065 29.1193 31.2339 29.0488C31.4028 28.9782 31.5536 28.8704 31.675 28.7334C31.7963 28.5963 31.8851 28.4336 31.9348 28.2575C31.9844 28.0813 31.9935 27.8961 31.9615 27.7159L31.851 23.8122L33.7595 23.7581L33.8676 27.5751C33.9314 29.8307 32.6572 30.8217 30.7487 30.8758C28.751 30.8455 27.5095 29.9256 27.4481 27.7569ZM36.6223 23.6771L39.3116 23.601C41.7406 23.5322 43.2546 24.8785 43.3111 26.8737C43.3676 28.869 41.9346 30.3855 39.5055 30.4543L36.903 30.5279L36.7091 23.6746L36.6223 23.6771ZM39.4564 28.7192C39.6988 28.7355 39.9419 28.7009 40.1702 28.6177C40.3984 28.5344 40.6068 28.4044 40.7818 28.236C40.9569 28.0676 41.0948 27.8644 41.1868 27.6395C41.2787 27.4147 41.3227 27.1731 41.3158 26.9302C41.3089 26.6874 41.2514 26.4487 41.1469 26.2293C41.0423 26.01 40.8931 25.815 40.7088 25.6567C40.5245 25.4985 40.3092 25.3805 40.0766 25.3103C39.844 25.2401 39.5993 25.2193 39.3582 25.2492L38.5775 25.2713L38.6757 28.7413L39.4564 28.7192ZM45.9046 23.4144L51.3698 23.2597L51.4165 24.9079L47.8597 25.0086L47.8917 26.1364L51.1014 26.0455L51.1456 27.607L47.9359 27.6979L48.0071 30.2136L46.0986 30.2676L45.9046 23.4144ZM54.0591 23.1836L55.9676 23.1295L56.1149 28.3345L59.4114 28.2412L59.4581 29.8895L54.2531 30.0368L54.0591 23.1836ZM64.2064 22.8095L66.1149 22.7555L69.2609 29.612L67.1789 29.6709L66.624 28.4712L63.9347 28.5473L63.4486 29.7765L61.4533 29.833L64.2064 22.8095ZM66.0617 27.0112L65.227 25.1248L64.5002 27.0554L66.0617 27.0112ZM71.4959 22.69L74.7056 22.5991C75.1142 22.5543 75.5277 22.5949 75.9198 22.7183C76.3118 22.8417 76.674 23.0453 76.9832 23.3161C77.2394 23.577 77.4289 23.8958 77.5358 24.2455C77.6427 24.5952 77.6638 24.9654 77.5973 25.325C77.5309 25.6846 77.3788 26.0228 77.1539 26.3112C76.9291 26.5996 76.6381 26.8295 76.3056 26.9817L78.0226 29.364L75.8539 29.4254L74.4069 27.3827L73.5394 27.4072L73.5984 29.4892L71.6899 29.5433L71.4959 22.69ZM74.7122 25.8981C75.3195 25.8809 75.7434 25.5216 75.7311 25.0879C75.7164 24.5674 75.2753 24.3194 74.668 24.3366L73.4535 24.371L73.5002 26.0192L74.7147 25.9849L74.7122 25.8981ZM80.2577 22.442L85.8097 22.2848L85.8539 23.8463L82.2104 23.9495L82.2398 24.9905L85.5363 24.8972L85.5805 26.4587L82.284 26.552L82.3135 27.593L86.0437 27.4874L86.0904 29.1357L80.4516 29.2953L80.2577 22.442ZM6.38005 28.7873C6.25789 29.0976 6.0479 29.3655 5.77578 29.5582C5.50367 29.751 5.18125 29.8602 4.84801 29.8725C4.37958 29.8629 3.93279 29.6735 3.6002 29.3435C3.26761 29.0135 3.0747 28.5682 3.06145 28.0998C3.04819 27.6315 3.2156 27.176 3.52899 26.8277C3.84239 26.4794 4.27775 26.2651 4.74488 26.229C5.09985 26.2257 5.44801 26.3264 5.74653 26.5184C6.04505 26.7105 6.2809 26.9857 6.42506 27.3101L8.42031 27.2536C8.22611 26.4274 7.74537 25.6969 7.06347 25.1916C6.38158 24.6864 5.54268 24.4392 4.69577 24.494C4.2158 24.492 3.74022 24.5855 3.29681 24.7693C2.85339 24.953 2.451 25.2232 2.11313 25.5642C1.77526 25.9051 1.50868 26.3099 1.32892 26.7549C1.14917 27.2 1.05986 27.6764 1.06619 28.1563C1.07697 28.6316 1.18337 29.0998 1.37904 29.5331C1.57471 29.9663 1.85564 30.3557 2.20508 30.678C2.55451 31.0003 2.96529 31.249 3.4129 31.4091C3.86051 31.5692 4.33579 31.6375 4.81037 31.6099C5.63939 31.5921 6.43908 31.2998 7.08418 30.7788C7.72928 30.2578 8.18336 29.5375 8.37531 28.7308L6.38005 28.7873Z" fill="white"/>
</svg>
