<svg width="40" height="40" viewBox="0 0 40 40" fill="none" xmlns="http://www.w3.org/2000/svg">
<rect width="40" height="40" rx="20" fill="#29292F"/>
<g clip-path="url(#clip0_1137_633)">
<path d="M14.481 24.6785C15.0076 24.8505 15.5437 25.0259 16.0987 25.2073C14.7332 22.051 15.0956 19.2137 17.7014 16.9436C19.9303 15.0019 22.4965 14.8761 25.2075 16.1242C25.0232 15.5569 24.8484 15.0164 24.6759 14.4854C27.4525 15.3588 30.2175 18.3843 29.9837 22.429C29.7438 26.5784 26.5285 29.7765 22.4019 29.9908C18.346 30.2018 15.3411 27.4285 14.4805 24.6791L14.481 24.6785ZM16.1766 25.209C17.2432 27.3099 19.9241 29.0851 23.0521 28.5858C26.097 28.0998 28.4339 25.5853 28.6521 22.4479C28.8531 19.5599 27.1196 17.1284 25.2064 16.1876C25.6311 18.8402 24.9859 21.1815 23.0788 23.0881C21.1727 24.993 18.8308 25.6349 16.1772 25.2096L16.1766 25.209Z" fill="white"/>
<path d="M24.5896 14.4047C21.4622 13.5174 18.6566 14.0596 16.352 16.3664C14.053 18.6683 13.5174 21.4694 14.3953 24.5662C13.6572 24.4465 11.9883 23.0136 11.2228 21.824C10.434 20.5982 10.0154 19.2539 10.0004 17.796C9.96255 14.0262 12.5978 10.7986 16.2373 10.1312C20.0177 9.43812 23.3293 11.583 24.5896 14.4047Z" fill="white"/>
</g>
<defs>
<clipPath id="clip0_1137_633">
<rect width="20" height="20.0017" fill="white" transform="translate(10 10)"/>
</clipPath>
</defs>
</svg>
