<svg width="40" height="40" viewBox="0 0 40 40" fill="none" xmlns="http://www.w3.org/2000/svg">
<path d="M0 20C0 8.95431 8.95431 0 20 0V0C31.0457 0 40 8.95431 40 20V20C40 31.0457 31.0457 40 20 40V40C8.95431 40 0 31.0457 0 20V20Z" fill="#29292F"/>
<path d="M29.996 29.5935C29.996 29.7981 29.8312 29.963 29.6297 29.963H11.2813C11.0798 29.963 10.915 29.7981 10.915 29.5935V15.7483H29.996V29.5935ZM29.6297 10.4209H11.2813C10.8264 10.4209 10.457 10.7934 10.457 11.2452V29.5935C10.457 30.0484 10.8264 30.4209 11.2813 30.4209H29.6297C30.0846 30.4209 30.454 30.0484 30.454 29.5935V11.2452C30.454 10.7934 30.0815 10.4209 29.6297 10.4209ZM12.9116 13.9257C12.4473 13.9257 12.0721 13.5481 12.0721 13.0861C12.0721 12.6218 12.4473 12.2466 12.9116 12.2466C13.3732 12.2466 13.7512 12.6218 13.7512 13.0861C13.7512 13.5477 13.3735 13.9257 12.9116 13.9257ZM15.7081 13.9257C15.2465 13.9257 14.8686 13.5481 14.8686 13.0861C14.8686 12.6218 15.2462 12.2466 15.7081 12.2466C16.1701 12.2466 16.5477 12.6218 16.5477 13.0861C16.5477 13.5477 16.1701 13.9257 15.7081 13.9257ZM18.5047 13.9257C18.0427 13.9257 17.6651 13.5481 17.6651 13.0861C17.6651 12.6218 18.0427 12.2466 18.5047 12.2466C18.969 12.2466 19.3442 12.6218 19.3442 13.0861C19.3442 13.5477 18.969 13.9257 18.5047 13.9257Z" fill="white"/>
<path d="M23.5562 18H16.4438L14 21.1496L18.9308 26.75H16.7671V28H23.2329V26.75H21.0691L26 21.1496L23.5562 18ZM19.3534 25.3013L16.2266 21.75H19.3534V25.3013ZM20.6466 21.75H23.7733L20.6466 25.3013V21.75ZM17.0904 19.25H22.9096L23.8795 20.5H16.1205L17.0904 19.25Z" fill="white"/>
<path d="M25.2413 12.1013H28.7733V13.2263C28.7733 13.3527 28.8759 13.4552 29.0023 13.4552C29.1286 13.4552 29.2312 13.3527 29.2312 13.2263V11.8723C29.2312 11.7459 29.1286 11.6433 29.0023 11.6433H25.2413C25.1149 11.6433 25.0123 11.7459 25.0123 11.8723C25.0123 11.9987 25.1149 12.1013 25.2413 12.1013Z" fill="white"/>
<path d="M23.9353 12.1013H24.2684C24.3947 12.1013 24.4973 11.9987 24.4973 11.8723C24.4973 11.7459 24.3947 11.6433 24.2684 11.6433H23.9353C23.8089 11.6433 23.7063 11.7459 23.7063 11.8723C23.7063 11.9987 23.8089 12.1013 23.9353 12.1013Z" fill="white"/>
</svg>
