<svg width="40" height="40" viewBox="0 0 40 40" fill="none" xmlns="http://www.w3.org/2000/svg">
<rect width="40" height="40" rx="20" fill="#29292F"/>
<path d="M27.5 10.833H12.5C11.1217 10.833 10 11.9547 10 13.333V26.6663C10 28.0447 11.1217 29.1663 12.5 29.1663H27.5C28.8783 29.1663 30 28.0447 30 26.6663V13.333C30 11.9547 28.8783 10.833 27.5 10.833ZM27.5 27.4997H12.5C12.0408 27.4997 11.6667 27.1263 11.6667 26.6663V14.9997H28.3333V26.6663C28.3333 27.1263 27.9592 27.4997 27.5 27.4997Z" fill="white"/>
<path d="M16.1921 20.8337C16.0821 20.8337 15.9696 20.8112 15.8621 20.7645C15.4396 20.582 15.2455 20.0912 15.428 19.6687C16.2163 17.8462 18.0113 16.667 20.0013 16.667C21.9805 16.667 23.7813 17.8428 24.588 19.6628C24.7746 20.0837 23.2505 20.7587 23.0646 20.3387C22.5238 19.1203 21.3221 18.3337 20.0013 18.3337C18.6771 18.3337 17.4821 19.1178 16.958 20.3312C16.8221 20.6453 16.5146 20.8337 16.1921 20.8337Z" fill="white"/>
<path d="M19.9984 26.6665C18.0075 26.6665 16.2067 25.489 15.41 23.6674C15.225 23.2457 16.7525 22.5782 16.9367 22.999C17.4684 24.2149 18.67 24.9999 19.9984 24.9999C21.3192 24.9999 22.5209 24.2132 23.0617 22.9957C23.2484 22.5765 23.7392 22.3849 24.1609 22.5715C24.5817 22.7582 24.7709 23.2499 24.585 23.6707C23.7784 25.4907 21.9775 26.6665 19.9984 26.6665Z" fill="white"/>
<path d="M24.1668 20.8333H22.0835C21.7468 20.8333 21.4418 20.63 21.3135 20.3192C21.1843 20.0075 21.256 19.6492 21.4943 19.4108L23.5777 17.3275C23.816 17.0883 24.1743 17.0175 24.486 17.1467C24.7977 17.2758 25.0002 17.58 25.0002 17.9167V20C25.0002 20.46 24.6277 20.8333 24.1668 20.8333Z" fill="white"/>
<path d="M15.8333 26.25C15.7258 26.25 15.6175 26.23 15.5142 26.1867C15.2025 26.0583 15 25.7533 15 25.4167V23.3333C15 22.8725 15.3725 22.5 15.8333 22.5H17.9167C18.2533 22.5 18.5583 22.7025 18.6867 23.0142C18.8158 23.3258 18.7442 23.6842 18.5058 23.9225L16.4225 26.0058C16.2633 26.165 16.05 26.25 15.8333 26.25Z" fill="white"/>
</svg>
