<svg width="40" height="40" viewBox="0 0 40 40" fill="none" xmlns="http://www.w3.org/2000/svg">
<rect width="40" height="40" rx="20" fill="#29292F"/>
<path d="M29.6893 24.4428H28.9824V13.7433C28.9824 12.8545 28.2593 12.1313 27.3705 12.1313H23.9579V12.032C23.9579 11.1113 23.2089 10.3623 22.2882 10.3623H16.8133C15.8926 10.3623 15.1436 11.1113 15.1436 12.032V12.1313H11.731C10.8422 12.1313 10.1191 12.8545 10.1191 13.7433V24.4428H9.41214C9.18451 24.4428 9 24.6273 9 24.8549V25.5272C9 26.4479 9.74902 27.1969 10.6697 27.1969H19.1386V27.676C18.5826 27.8517 18.1784 28.3732 18.1784 28.9875C18.1784 29.7456 18.794 30.3623 19.5507 30.3623C20.3074 30.3623 20.9231 29.7455 20.9231 28.9875C20.9231 28.3732 20.5188 27.8517 19.9629 27.676V27.1969H28.4317C29.3524 27.1969 30.1014 26.4479 30.1014 25.5272V24.8549C30.1014 24.6273 29.9169 24.4428 29.6893 24.4428ZM19.5507 29.5381C19.2485 29.5381 19.0027 29.2911 19.0027 28.9875C19.0027 28.6839 19.2485 28.4369 19.5507 28.4369C19.8529 28.4369 20.0988 28.6839 20.0988 28.9875C20.0988 29.291 19.8529 29.5381 19.5507 29.5381ZM15.9678 12.032C15.9678 11.5658 16.3471 11.1866 16.8133 11.1866H22.2881C22.7543 11.1866 23.1336 11.5658 23.1336 12.032V12.1313H15.9678V12.032ZM10.9433 13.7433C10.9433 13.3089 11.2967 12.9556 11.731 12.9556H27.3704C27.8047 12.9556 28.1581 13.3089 28.1581 13.7433V24.4428H10.9433V13.7433ZM29.2772 25.5272C29.2772 25.9934 28.8979 26.3727 28.4317 26.3727H10.6697C10.2035 26.3727 9.82427 25.9934 9.82427 25.5272V25.267H29.2772V25.5272Z" fill="white"/>
<path fill-rule="evenodd" clip-rule="evenodd" d="M26.7586 18.0061C26.7586 17.4538 26.3108 17.0061 25.7586 17.0061H13.3463C12.794 17.0061 12.3463 17.4538 12.3463 18.0061V22.0411C12.3463 22.5934 12.794 23.0411 13.3463 23.0411H25.7586C26.3108 23.0411 26.7586 22.5934 26.7586 22.0411V18.0061ZM22.9883 18.2651L23.8519 18.3073C23.9611 18.3126 24.0637 18.361 24.1372 18.4421C24.2106 18.5231 24.2489 18.6299 24.2436 18.7391L24.2003 19.6245C24.1896 19.845 24.0074 20.0166 23.789 20.0166C23.7822 20.0166 23.7754 20.0164 23.7686 20.0161C23.5821 20.007 23.4306 19.8752 23.3883 19.7026L20.8538 21.7369C20.7068 21.8547 20.4986 21.8581 20.3481 21.7448L17.8859 19.8934L15.5253 21.74C15.4499 21.799 15.3604 21.8276 15.2716 21.8276C15.1492 21.8276 15.028 21.7733 14.9467 21.6694C14.8065 21.4901 14.8381 21.231 15.0174 21.0908L17.627 19.0494C17.7739 18.9345 17.9796 18.9325 18.1286 19.0447L20.5875 20.8936L22.8554 19.0733C22.675 19.0221 22.547 18.852 22.5565 18.6567C22.5676 18.4293 22.7599 18.2544 22.9883 18.2651Z" fill="white"/>
<path d="M17.5496 14.9497C17.5496 14.7222 17.3651 14.5376 17.1375 14.5376H12.3446C12.117 14.5376 11.9325 14.7222 11.9325 14.9497C11.9325 15.1773 12.117 15.3619 12.3446 15.3619H17.1375C17.3651 15.3619 17.5496 15.1773 17.5496 14.9497Z" fill="white"/>
<path d="M26.7568 14.5376H21.964C21.7364 14.5376 21.5519 14.7222 21.5519 14.9497C21.5519 15.1773 21.7364 15.3619 21.964 15.3619H26.7568C26.9844 15.3619 27.169 15.1773 27.169 14.9497C27.169 14.7222 26.9844 14.5376 26.7568 14.5376Z" fill="white"/>
</svg>
