<svg width="40" height="40" viewBox="0 0 40 40" fill="none" xmlns="http://www.w3.org/2000/svg">
<rect width="40" height="40" rx="20" fill="#29292F"/>
<path d="M30.3717 26.196L28.6452 25.711V12.632C28.6452 11.7317 27.9113 11 27.0111 11H11.6321C10.7318 11 10 11.7318 10 12.632V27.0655C10 27.9658 10.7317 28.6976 11.6321 28.6976H25.6832L26.1622 30.4056C26.3718 31.1539 27.4057 31.2094 27.6976 30.494L28.4992 28.5332L30.4601 27.7336C31.1775 27.4396 31.1158 26.4036 30.3717 26.196ZM25.9155 24.9463C25.305 24.7757 24.7418 25.3389 24.9124 25.9494L25.5681 28.2865H11.6321C10.9599 28.2865 10.4111 27.7377 10.4111 27.0655V12.632C10.4111 11.9578 10.9599 11.4111 11.6321 11.4111H27.0111C27.6853 11.4111 28.2341 11.9578 28.2341 12.632V25.5959L25.9155 24.9463Z" fill="white"/>
<path d="M13.0955 13.2076V13.8304C13.0955 14.186 12.8057 14.4738 12.4501 14.4738H11.7698C11.4142 14.4738 11.1243 14.186 11.1243 13.8304V13.2076C11.1243 12.852 11.4142 12.5642 11.7698 12.5642H12.4501C12.8057 12.5642 13.0955 12.852 13.0955 13.2076Z" fill="white"/>
<path d="M15.7594 13.2076V13.8304C15.7594 14.186 15.4695 14.4738 15.1139 14.4738H14.4336C14.078 14.4738 13.7902 14.186 13.7902 13.8304V13.2076C13.7902 12.852 14.078 12.5642 14.4336 12.5642H15.1139C15.4695 12.5642 15.7594 12.852 15.7594 13.2076Z" fill="white"/>
<path d="M18.4233 13.2076V13.8304C18.4233 14.186 18.1335 14.4738 17.7779 14.4738H17.0996C16.744 14.4738 16.4542 14.186 16.4542 13.8304V13.2076C16.4542 12.852 16.744 12.5642 17.0996 12.5642H17.7779C18.1335 12.5642 18.4233 12.852 18.4233 13.2076Z" fill="white"/>
<path d="M27.5187 13.222V13.818C27.5187 14.1798 27.2227 14.4758 26.8609 14.4758H20.7274C20.3657 14.4758 20.0697 14.1798 20.0697 13.818V13.222C20.0697 12.8582 20.3657 12.5642 20.7274 12.5642H26.8609C27.2227 12.5642 27.5187 12.8582 27.5187 13.222Z" fill="white"/>
<path d="M19.3215 17.5076H19.2701C17.4428 17.522 15.7717 18.2579 14.5487 19.4582C13.3257 20.6586 12.5487 22.3194 12.5097 24.1817C12.5097 24.2372 12.5303 24.2906 12.5693 24.3297C12.6083 24.3687 12.6597 24.3913 12.7153 24.3913H15.1448C15.2558 24.3913 15.3462 24.3029 15.3504 24.1919C15.4202 22.0543 17.1694 20.3441 19.3215 20.3441C20.1108 20.3441 20.8652 20.5784 21.5106 21.006L19.3688 22.8868C19.0441 22.8908 18.7213 23.0162 18.4726 23.2649C17.9691 23.7686 17.9691 24.5907 18.4726 25.0964C18.7255 25.3492 19.0585 25.4746 19.3894 25.4746C19.7203 25.4746 20.0533 25.3492 20.304 25.0964C20.5445 24.8559 20.6781 24.5373 20.6843 24.2002L22.5754 22.044C23.0173 22.6709 23.268 23.4129 23.2927 24.1919C23.2948 24.3029 23.3873 24.3913 23.4983 24.3913H25.9278C25.9833 24.3913 26.0368 24.3687 26.0758 24.3297C26.1128 24.2906 26.1354 24.2372 26.1334 24.1817C26.0573 20.4736 23.0357 17.5076 19.3215 17.5076ZM19.0687 19.9412C18.0718 19.9988 17.1366 20.3873 16.3925 21.0553L14.9434 19.6494C16.0739 18.5887 17.523 17.9844 19.0687 17.9248V19.9412ZM20.5877 23.6863C20.524 23.5301 20.4274 23.3862 20.304 23.2649C20.1807 23.1396 20.0368 23.045 19.8826 22.9813L22.7603 20.4572C22.8589 20.3708 23.009 20.3749 23.1014 20.4675C23.194 20.5599 23.198 20.71 23.1117 20.8086L20.5877 23.6863ZM23.6914 23.9802C23.6298 23.1581 23.3379 22.3831 22.8549 21.7274L23.4222 21.08C23.5907 20.8847 23.6277 20.6175 23.5332 20.3914C23.6935 20.2351 23.8497 20.0831 23.9915 19.9412C25.0295 21.0471 25.6359 22.4674 25.7161 23.9802H23.6914Z" fill="white"/>
</svg>
