<svg width="40" height="40" viewBox="0 0 40 40" fill="none" xmlns="http://www.w3.org/2000/svg">
<rect width="40" height="40" rx="20" fill="#29292F"/>
<path d="M29.5146 27.1497H27.1631C29.0697 25.2431 30.2454 22.701 30.2772 20C30.309 17.2354 29.2604 14.598 27.2902 12.6278C26.0509 11.3568 24.4939 10.467 22.8097 10.0221C22.4602 9.92681 22.0788 10.1492 22.0153 10.4988C21.9517 10.8166 22.1424 11.1343 22.4602 11.2297C23.9537 11.6427 25.3201 12.4372 26.4322 13.5493C29.8959 17.0448 29.737 22.7646 26.2734 26.2282V23.8767C26.2734 23.5272 25.9874 23.2412 25.6378 23.2412C25.2883 23.2412 25.0023 23.5272 25.0023 23.8767V27.7535C25.0023 28.103 25.2883 28.389 25.6378 28.389H29.5146C29.8641 28.389 30.1501 28.103 30.1501 27.7535C30.1501 27.4357 29.8641 27.1497 29.5146 27.1497Z" fill="white"/>
<path d="M17.7574 28.7703C16.2639 28.3572 14.8975 27.5627 13.7853 26.4506C10.3216 22.9551 10.4805 17.2353 13.9442 13.7717V16.1232C13.9442 16.4727 14.2302 16.7587 14.5797 16.7587C14.9293 16.7587 15.2152 16.4727 15.2152 16.1232V12.2146C15.2152 11.8651 14.9293 11.5791 14.5797 11.5791H10.7347C10.3852 11.5791 10.0992 11.8651 10.0992 12.2146C10.0992 12.5642 10.3852 12.8502 10.7347 12.8502H13.0862C9.20946 16.7269 8.92347 22.9551 12.5778 26.9908C13.8806 28.4525 15.5648 29.4693 17.4396 29.9778C17.7892 30.0731 18.1705 29.8507 18.234 29.5011C18.2658 29.1834 18.0751 28.8656 17.7574 28.7703Z" fill="white"/>
<path d="M24.4943 15.6467C23.6364 14.7887 22.2064 14.7887 21.3484 15.6467L20.9989 15.9962L24.1448 19.1421L24.4943 18.7925C25.3523 17.9028 25.3523 16.5046 24.4943 15.6467Z" fill="white"/>
<path d="M15.2787 21.6843C15.1516 21.8114 15.088 21.9702 15.088 22.1291V24.3853C15.088 24.7348 15.374 25.0208 15.7235 25.0208H17.9797C18.1386 25.0208 18.2975 24.9572 18.4246 24.8301L23.2228 20.0319L20.0769 16.886L15.2787 21.6843Z" fill="white"/>
</svg>
